<svg xmlns="http://www.w3.org/2000/svg" viewBox="0 0 224.41 191.09"><defs><style>.cls-1,.cls-3{fill:#030303;}.cls-2{fill:#010101;}.cls-3{stroke:#010101;stroke-miterlimit:10;stroke-width:2px;}.cls-4{fill:none;}</style></defs><g id="Capa_2" data-name="Capa 2"><g id="Layer_1" data-name="Layer 1"><path class="cls-1" d="M223.41,113c0-20.85-12.28-39.38-31.41-51.14a93.09,93.09,0,0,0-9.67-5.14,52.53,52.53,0,0,1,3.2,10,65.44,65.44,0,0,1,8.41,5.5C207.56,82.51,216,97,216,113c0,13.54-6.18,26.72-17.49,37.06l-1.27,1.12.82,25.53L175,164.39l-1.57.52a86.81,86.81,0,0,1-29.4,5c-17.19,0-32.9-4.7-45.26-12.66a65.64,65.64,0,0,1-10-7.81,97.74,97.74,0,0,1-11.46-1.57,61,61,0,0,0,8.33,8.71c14.52,12.8,35.29,20.77,58.36,20.77a96.39,96.39,0,0,0,30.3-4.84l31.56,16.9-1-35C216.86,142.8,223.41,128.21,223.41,113Z"/><path class="cls-2" d="M206.9,191.09l-32.71-17.51a97.19,97.19,0,0,1-30.2,4.76c-22.36,0-43.87-7.66-59-21a61.6,61.6,0,0,1-8.46-8.84l-1.66-2.12,2.64.52a97.89,97.89,0,0,0,11.35,1.55l.36,0,.26.25a64.09,64.09,0,0,0,9.82,7.69c12.68,8.17,28.14,12.5,44.71,12.5A86.21,86.21,0,0,0,173.06,164l2-.67L197,175l-.78-24.27,1.62-1.43C208.87,139.23,215,126.33,215,113c0-15.27-7.68-29.47-21.63-40A65.06,65.06,0,0,0,185,67.6l-.39-.22-.1-.44a51.14,51.14,0,0,0-3.14-9.78l-1.06-2.41,2.39,1.09A91.37,91.37,0,0,1,192.52,61c20.27,12.47,31.89,31.41,31.89,52,0,15.27-6.6,30.09-18.59,41.79Zm-32.52-19.67L204.8,187.7l-1-33.7.32-.31c11.8-11.36,18.3-25.81,18.3-40.66,0-19.87-11.27-38.2-30.93-50.29-2.38-1.45-4.77-2.77-7.25-4a55.57,55.57,0,0,1,2.18,7.31,66.93,66.93,0,0,1,8.14,5.37C208.79,82.19,217,97.35,217,113c0,13.87-6.33,27.3-17.82,37.8l-.92.82.86,26.79-24.23-13-1.15.39a88.18,88.18,0,0,1-29.72,5c-17,0-32.79-4.44-45.8-12.82a67.11,67.11,0,0,1-9.87-7.69c-2.87-.23-5.68-.58-8.52-1.06a59.18,59.18,0,0,0,6.48,6.48c14.8,13.05,35.83,20.53,57.71,20.53a95.17,95.17,0,0,0,30-4.79Z"/><path class="cls-3" d="M193.94,72.23A52.9,52.9,0,0,0,192,61.89C182.25,27.05,143.69,1,97.69,1,44.4,1,1,36.06,1,79.16c0,18.46,8.19,36.25,22.93,50.39l-1.27,41.91L60.4,151.14a111.59,111.59,0,0,0,25.23,5.43,107.39,107.39,0,0,0,12.06.67h1c52.93-.45,95.65-35.36,95.65-78.08A53,53,0,0,0,193.94,72.23ZM97.69,149.8c-3,0-6-.15-8.93-.37a97.74,97.74,0,0,1-11.46-1.57,98.71,98.71,0,0,1-15.93-4.24L59.8,143,30.55,158.8l1-32.45-1.27-1.12C16.19,112.36,8.44,96,8.44,79.16c0-39,40.05-70.72,89.25-70.72,39.38,0,72.8,20.25,84.64,48.31a52.53,52.53,0,0,1,3.2,10,53.48,53.48,0,0,1,1.41,12.43C186.94,118.09,147,149.8,97.69,149.8Z"/><path class="cls-4" d="M72,113c0,13.84,6.25,26.57,16.75,36.4a97.74,97.74,0,0,1-11.46-1.57A55.24,55.24,0,0,1,64.57,113c0-35.44,35.65-64.24,79.42-64.24a94.17,94.17,0,0,1,38.34,8,52.53,52.53,0,0,1,3.2,10A84.46,84.46,0,0,0,144,56.23C104.32,56.23,72,81.69,72,113Z"/></g></g></svg>