<svg xmlns="http://www.w3.org/2000/svg" viewBox="0 0 229.27 170.99"><defs><style>.cls-1{fill:#030303;}</style></defs><g id="Capa_2" data-name="Capa 2"><g id="Layer_1" data-name="Layer 1"><path class="cls-1" d="M204.82,171H24.45A24.48,24.48,0,0,1,0,146.54V24.45A24.48,24.48,0,0,1,24.45,0H204.82a24.48,24.48,0,0,1,24.45,24.45V146.54A24.48,24.48,0,0,1,204.82,171ZM24.45,10A14.46,14.46,0,0,0,10,24.45V146.54A14.46,14.46,0,0,0,24.45,161H204.82a14.46,14.46,0,0,0,14.45-14.45V24.45A14.46,14.46,0,0,0,204.82,10Z"/><path class="cls-1" d="M113,106.26l-102.79-86a5,5,0,1,1,6.41-7.67L113,93.22l96.38-80.6a5,5,0,1,1,6.42,7.67Z"/></g></g></svg>