<svg xmlns="http://www.w3.org/2000/svg" viewBox="0 0 300.36 389.12"><defs><style>.cls-1{fill:#1d1d1b;}</style></defs><g id="Capa_2" data-name="Capa 2"><g id="Capa_4" data-name="Capa 4"><path class="cls-1" d="M252.65,246.59l3.37-3.37-28.17-28.17a103.71,103.71,0,0,0,26.68-65.83h40.1v-9.54H254.46a103.73,103.73,0,0,0-27.55-64.89L256,45.68l-3.37-3.37-3.38-3.38L220.12,68.08A103.73,103.73,0,0,0,155,41.42V0h-9.54V41.44A103.68,103.68,0,0,0,80.89,68.08L51.74,38.93,45,45.68,74.1,74.79a103.73,103.73,0,0,0-27.55,64.89H5.73v9.54H46.48a103.71,103.71,0,0,0,26.68,65.83L45,243.22,51.74,250l28.13-28.13a103.68,103.68,0,0,0,65.54,27.59V288.9H155V249.44a103.71,103.71,0,0,0,66.19-27.61L249.27,250Zm-31.56-38.3c-1.06,1.19-2.14,2.35-3.26,3.48s-2.26,2.24-3.43,3.32A94.22,94.22,0,0,1,155,239.89c-1.47.07-2.95.12-4.44.12h-.33c-1.6,0-3.19-.05-4.77-.13a94.21,94.21,0,0,1-58.8-24.78c-1.17-1.08-2.31-2.18-3.43-3.32s-2.2-2.29-3.26-3.48A94.2,94.2,0,0,1,56,149.22c-.05-1.26-.09-2.52-.09-3.79,0-.33,0-.65,0-1,0-1.6.07-3.19.17-4.77A94.24,94.24,0,0,1,80.84,81.54c1.08-1.18,2.19-2.32,3.32-3.44s2.3-2.2,3.49-3.26A94.15,94.15,0,0,1,145.41,51c1.58-.08,3.17-.13,4.77-.13h.33c1.49,0,3,0,4.44.11a94.2,94.2,0,0,1,58.41,23.88c1.19,1.06,2.36,2.15,3.49,3.26s2.24,2.26,3.32,3.44a94.24,94.24,0,0,1,24.72,58.14c.1,1.58.15,3.17.17,4.77,0,.33,0,.65,0,1,0,1.27,0,2.53-.09,3.79A94.2,94.2,0,0,1,221.09,208.29Z"/><path class="cls-1" d="M34.7,319.72a34.7,34.7,0,1,0,34.7,34.7A34.74,34.74,0,0,0,34.7,319.72Zm0,61.4a26.7,26.7,0,1,1,26.7-26.7A26.73,26.73,0,0,1,34.7,381.12Z"/><path class="cls-1" d="M150.18,319.72a34.7,34.7,0,1,0,34.7,34.7A34.74,34.74,0,0,0,150.18,319.72Zm0,61.4a26.7,26.7,0,1,1,26.7-26.7A26.73,26.73,0,0,1,150.18,381.12Z"/><path class="cls-1" d="M265.66,319.72a34.7,34.7,0,1,0,34.7,34.7A34.74,34.74,0,0,0,265.66,319.72Zm0,61.4a26.7,26.7,0,1,1,26.7-26.7A26.73,26.73,0,0,1,265.66,381.12Z"/></g></g></svg>