<svg xmlns="http://www.w3.org/2000/svg" viewBox="0 0 317.26 386.25"><defs><style>.cls-1{fill:#1d1d1b;}</style></defs><g id="Capa_2" data-name="Capa 2"><g id="Capa_5" data-name="Capa 5"><path class="cls-1" d="M317.25,249.57q0-17.43,0-34.86v-19q0-11.67,0-23.35c0-.18,0-.36,0-.54a4.45,4.45,0,0,0,0-1,4.32,4.32,0,0,0-.61-.08c-9-.42-16.79,1-23.74,4.47a44.2,44.2,0,0,0-21,21.16,6,6,0,0,1-6.38,3.92c-3.29-.12-6.65-.09-9.91-.06-2.09,0-4.18,0-6.28,0-5.3,0-10.61-.14-16.1-.23l-10.43-.17,57.35-67.64L149.92,2l-4.73,3.89c-5.14,4.22-10.46,8.58-15.64,13-2.89,2.47-4.89,1.18-6.7-.36l-.38-.31A83.71,83.71,0,0,0,111.77,10,68.2,68.2,0,0,0,87.17.94,69.2,69.2,0,0,0,57.85,2.37C45,5.76,33.59,12.87,24,23.53a67.18,67.18,0,0,0-15.35,30,65.65,65.65,0,0,0,.14,32.61A70.42,70.42,0,0,0,20,109.86l.82,1.12L0,128.77,153.17,282l.9-1.08q3-3.49,6-7c4-4.69,8.19-9.53,12.26-14.33,2.42-2.85,4.82-5.72,7.23-8.6,3.81-4.56,7.76-9.27,11.72-13.85a7.17,7.17,0,0,1,5-2.11q20-.07,40-.08l32.13-.06h0a5.15,5.15,0,0,1,4.74,2.76l.73,1.11a51.78,51.78,0,0,0,5.55,7.48c9.59,10.06,21.44,15,35.15,14.58h.22a16.82,16.82,0,0,0,2.39-.16,16.53,16.53,0,0,0,.09-2.4ZM18.77,63.78C20.29,48.09,27,34.94,39.36,24.89A57,57,0,0,1,70.24,12.13c14-1.43,26.7,2,38.36,9.61a41,41,0,0,1,6.14,5.11,2.67,2.67,0,0,1,0,2.61c-5.08,4.5-10.29,8.85-15.47,13.23L83.48,56.05Q71.81,65.94,60.13,75.81L28.79,102.27a57.6,57.6,0,0,1-3.23-4.77A58.46,58.46,0,0,1,18.77,63.78ZM306.94,250.26l-1.79-.35a32.63,32.63,0,0,1-20.62-13.13,39.36,39.36,0,0,1-3.72-6.82c-.62-1.33-1.25-2.7-1.95-4a2.78,2.78,0,0,0-1.17-1.1c-8.63-.31-17.92-.6-27.13-.64-21.87-.09-41.13-.06-58.88.1a6.6,6.6,0,0,0-4.27,1.85c-3.71,4.21-7.36,8.63-10.88,12.91q-3.28,4-6.62,8c-2.72,3.23-5.56,6.45-8.3,9.56q-2.21,2.5-4.4,5c-.83,1-1.63,1.92-2.44,2.89l-2.19,2.6L151.43,266,14.72,129.26,149.88,14.89,267,132.12l-66.09,78.12a4.2,4.2,0,0,0,.69.06H225c16.66,0,33.88,0,50.81.09,1.45,0,1.62-.32,2.26-1.89l.22-.54c.39-.91.77-1.84,1.15-2.77a59,59,0,0,1,5.38-10.93c4.24-6.24,10.86-10.39,20.24-12.69l1.86-.46Z"/><circle class="cls-1" cx="42.8" cy="351.55" r="34.7"/><circle class="cls-1" cx="158.28" cy="351.55" r="34.7"/><path class="cls-1" d="M273.75,316.86a34.7,34.7,0,1,0,34.7,34.69A34.73,34.73,0,0,0,273.75,316.86Zm0,61.39a26.7,26.7,0,1,1,26.7-26.7A26.72,26.72,0,0,1,273.75,378.25Z"/></g></g></svg>