<svg xmlns="http://www.w3.org/2000/svg" viewBox="0 0 312.48 245.71"><g id="Capa_2" data-name="Capa 2"><g id="Capa_6" data-name="Capa 6"><path d="M284.87,36.62q-22.61,0-45.22,0c-18.47,0-37.56,0-56.34,0h-.14c-3.15,0-6.57.26-9.87.51-8.87.68-18,1.38-25-2.49s-10.92-12.49-14.75-20.81C132.26,11,131,8.32,129.72,5.86c-2.38-4.44-5-5.9-10.13-5.86C100.08.21,80.25.18,61.08.16q-14.64,0-29.27,0C9.25.2,0,9.33,0,31.7,0,94.76,0,159.46,0,215.15c0,22.49,7.89,30.48,30.14,30.52,30.15.05,60.8,0,90.44,0l37.31,0,36,0c29.71,0,60.44,0,90.66-.06,18.64-.06,27.73-8.88,27.8-26.94.2-50.06.2-102.16,0-154.84C312.27,45.81,303,36.65,284.87,36.62ZM14.42,16.52c3-3.49,8.17-4.92,17.87-4.93h69.78c20,0,20.76.61,28.88,22L132.24,37H12.68l-.33-2.11C11.08,26.79,11,20.59,14.42,16.52ZM300.89,217.73c0,12.6-3.88,16.45-16.53,16.47-31.32.05-63.16,0-94,0H83.16q-27.1,0-54.22,0c-13.92,0-17.52-3.61-17.53-17.5,0-50,0-100.41,0-149.95,0-13.89,5.13-19.06,18.9-19.07,81.38,0,164.28,0,253.44,0,12.81,0,17.14,4.33,17.15,17.14C301,119.63,301,169.65,300.89,217.73Z"/></g></g></svg>