<svg xmlns="http://www.w3.org/2000/svg" xmlns:xlink="http://www.w3.org/1999/xlink" viewBox="0 0 171.83 142.01"><defs><style>.cls-1{mask:url(#mask);filter:url(#luminosity-noclip-6);}.cls-10,.cls-2,.cls-4,.cls-6,.cls-8{mix-blend-mode:multiply;}.cls-2{fill:url(#linear-gradient);}.cls-3{mask:url(#mask-2);filter:url(#luminosity-noclip-7);}.cls-4{fill:url(#linear-gradient-2);}.cls-5{mask:url(#mask-3);filter:url(#luminosity-noclip-8);}.cls-6{fill:url(#linear-gradient-3);}.cls-7{mask:url(#mask-4);filter:url(#luminosity-noclip-9);}.cls-8{fill:url(#linear-gradient-4);}.cls-9{mask:url(#mask-5);filter:url(#luminosity-noclip-10);}.cls-10{fill:url(#linear-gradient-5);}.cls-11{isolation:isolate;}.cls-12{fill:url(#linear-gradient-6);}.cls-13,.cls-16,.cls-20,.cls-22{mix-blend-mode:hard-light;}.cls-13{fill:url(#linear-gradient-7);}.cls-14{opacity:0.7;fill:url(#linear-gradient-8);}.cls-15{fill:url(#linear-gradient-9);}.cls-16{fill:url(#linear-gradient-10);}.cls-17{fill:url(#linear-gradient-11);}.cls-18{fill:url(#linear-gradient-12);}.cls-19{mask:url(#mask-6);}.cls-20{fill:url(#linear-gradient-13);}.cls-21{mask:url(#mask-7);}.cls-22{fill:url(#linear-gradient-14);}.cls-23{fill:url(#linear-gradient-15);}.cls-24{fill:url(#linear-gradient-16);}.cls-25{fill:url(#linear-gradient-17);}.cls-26{fill:url(#linear-gradient-18);}.cls-27{fill:url(#linear-gradient-19);}.cls-28{fill:url(#linear-gradient-20);}.cls-29{fill:url(#linear-gradient-21);}.cls-30{fill:url(#linear-gradient-22);}.cls-31{fill:url(#linear-gradient-23);}.cls-32,.cls-33{fill:#fff;}.cls-33{opacity:0.8;}.cls-34{fill:url(#linear-gradient-24);}.cls-35{fill:url(#linear-gradient-25);}.cls-36{fill:url(#linear-gradient-26);}.cls-37{fill:url(#linear-gradient-27);}.cls-38{fill:url(#linear-gradient-28);}.cls-39{fill:url(#linear-gradient-29);}.cls-40{fill:url(#linear-gradient-30);}.cls-41{fill:url(#linear-gradient-31);}.cls-42{fill:url(#linear-gradient-32);}.cls-43{fill:url(#linear-gradient-33);}.cls-44{fill:url(#linear-gradient-34);}.cls-45{fill:url(#linear-gradient-35);}.cls-46{fill:none;}.cls-47{mask:url(#mask-8);}.cls-48{opacity:0.9;fill:url(#linear-gradient-36);}.cls-49{mask:url(#mask-9);}.cls-50{fill:url(#linear-gradient-37);}.cls-51{mask:url(#mask-10);}.cls-52{fill:url(#linear-gradient-38);}.cls-53{filter:url(#luminosity-noclip-5);}.cls-54{filter:url(#luminosity-noclip-4);}.cls-55{filter:url(#luminosity-noclip-3);}.cls-56{filter:url(#luminosity-noclip-2);}.cls-57{filter:url(#luminosity-noclip);}</style><filter id="luminosity-noclip" x="49.08" y="-8120.89" width="2.8" height="32766" filterUnits="userSpaceOnUse" color-interpolation-filters="sRGB"><feFlood flood-color="#fff" result="bg"/><feBlend in="SourceGraphic" in2="bg"/></filter><mask id="mask" x="49.08" y="-8120.89" width="2.8" height="32766" maskUnits="userSpaceOnUse"><g class="cls-57"/></mask><linearGradient id="linear-gradient" x1="52.31" y1="72.29" x2="50.1" y2="70.23" gradientUnits="userSpaceOnUse"><stop offset="0.03"/><stop offset="0.06" stop-color="#0b0b0b"/><stop offset="0.21" stop-color="#4b4b4b"/><stop offset="0.36" stop-color="#828282"/><stop offset="0.51" stop-color="#afafaf"/><stop offset="0.65" stop-color="#d2d2d2"/><stop offset="0.78" stop-color="#ebebeb"/><stop offset="0.9" stop-color="#fafafa"/><stop offset="1" stop-color="#fff"/></linearGradient><filter id="luminosity-noclip-2" x="52.78" y="-8120.89" width="1.18" height="32766" filterUnits="userSpaceOnUse" color-interpolation-filters="sRGB"><feFlood flood-color="#fff" result="bg"/><feBlend in="SourceGraphic" in2="bg"/></filter><mask id="mask-2" x="52.78" y="-8120.89" width="1.18" height="32766" maskUnits="userSpaceOnUse"><g class="cls-56"/></mask><linearGradient id="linear-gradient-2" x1="54.14" y1="75.1" x2="53.21" y2="74.23" xlink:href="#linear-gradient"/><filter id="luminosity-noclip-3" x="136.29" y="-8120.89" width="11.5" height="32766" filterUnits="userSpaceOnUse" color-interpolation-filters="sRGB"><feFlood flood-color="#fff" result="bg"/><feBlend in="SourceGraphic" in2="bg"/></filter><mask id="mask-3" x="136.29" y="-8120.89" width="11.5" height="32766" maskUnits="userSpaceOnUse"><g class="cls-55"/></mask><linearGradient id="linear-gradient-3" x1="127.04" y1="63.58" x2="153.62" y2="63.54" gradientUnits="userSpaceOnUse"><stop offset="0.05"/><stop offset="0.71" stop-color="#fff"/></linearGradient><filter id="luminosity-noclip-4" x="39.04" y="-8120.89" width="15.19" height="32766" filterUnits="userSpaceOnUse" color-interpolation-filters="sRGB"><feFlood flood-color="#fff" result="bg"/><feBlend in="SourceGraphic" in2="bg"/></filter><mask id="mask-4" x="39.04" y="-8120.89" width="15.19" height="32766" maskUnits="userSpaceOnUse"><g class="cls-54"/></mask><linearGradient id="linear-gradient-4" x1="54.07" y1="119.15" x2="45.11" y2="110.75" xlink:href="#linear-gradient"/><filter id="luminosity-noclip-5" x="157.02" y="-8120.89" width="9.09" height="32766" filterUnits="userSpaceOnUse" color-interpolation-filters="sRGB"><feFlood flood-color="#fff" result="bg"/><feBlend in="SourceGraphic" in2="bg"/></filter><mask id="mask-5" x="157.02" y="-8120.89" width="9.09" height="32766" maskUnits="userSpaceOnUse"><g class="cls-53"/></mask><linearGradient id="linear-gradient-5" x1="166.01" y1="61.77" x2="160.66" y2="56.75" xlink:href="#linear-gradient"/><linearGradient id="linear-gradient-6" x1="164.77" y1="11.59" x2="15.55" y2="154.83" gradientUnits="userSpaceOnUse"><stop offset="0.34" stop-color="#ae3b95"/><stop offset="1" stop-color="#7a14aa"/></linearGradient><linearGradient id="linear-gradient-7" x1="66.79" y1="76.21" x2="3.76" y2="143.37" gradientUnits="userSpaceOnUse"><stop offset="0.12" stop-color="#ffb67a"/><stop offset="0.26" stop-color="#ffb17d"/><stop offset="0.42" stop-color="#ffa487"/><stop offset="0.59" stop-color="#ff8d96"/><stop offset="0.77" stop-color="#ff6dac"/><stop offset="0.95" stop-color="#ff45c8"/><stop offset="1" stop-color="#ff38d1"/></linearGradient><linearGradient id="linear-gradient-8" x1="68.61" y1="126.93" x2="13.34" y2="97.53" gradientUnits="userSpaceOnUse"><stop offset="0" stop-color="#ff38d1"/><stop offset="1" stop-color="#ffb67a"/></linearGradient><linearGradient id="linear-gradient-9" x1="82.88" y1="168.75" x2="148.31" y2="84.78" gradientUnits="userSpaceOnUse"><stop offset="0.23" stop-color="#ff38d1"/><stop offset="1" stop-color="#ffb67a"/></linearGradient><linearGradient id="linear-gradient-10" x1="106.53" y1="124.85" x2="181.69" y2="95.67" gradientUnits="userSpaceOnUse"><stop offset="0" stop-color="#ffb67a"/><stop offset="1" stop-color="#ff38d1"/></linearGradient><linearGradient id="linear-gradient-11" x1="49.97" y1="124.82" x2="53.21" y2="124.82" gradientUnits="userSpaceOnUse"><stop offset="0.18" stop-color="#ffb67a"/><stop offset="0.37" stop-color="#ffa884"/><stop offset="0.92" stop-color="#ff38d1"/></linearGradient><linearGradient id="linear-gradient-12" x1="53.04" y1="122.72" x2="54.23" y2="122.72" xlink:href="#linear-gradient-11"/><filter id="luminosity-noclip-6" x="49.08" y="69.18" width="2.8" height="2.8" filterUnits="userSpaceOnUse" color-interpolation-filters="sRGB"><feFlood flood-color="#fff" result="bg"/><feBlend in="SourceGraphic" in2="bg"/></filter><mask id="mask-6" x="49.08" y="69.18" width="2.8" height="2.8" maskUnits="userSpaceOnUse"><g class="cls-1"><path class="cls-2" d="M51.88,70.58a1.4,1.4,0,1,1-1.4-1.4A1.4,1.4,0,0,1,51.88,70.58Z"/></g></mask><linearGradient id="linear-gradient-13" x1="52.31" y1="72.29" x2="50.1" y2="70.23" gradientUnits="userSpaceOnUse"><stop offset="0.03" stop-color="#fff2fd"/><stop offset="0.16" stop-color="#ffeaf1"/><stop offset="0.47" stop-color="#ffdad8"/><stop offset="0.76" stop-color="#ffd0c9"/><stop offset="1" stop-color="#ffcdc4"/></linearGradient><filter id="luminosity-noclip-7" x="52.78" y="73.78" width="1.18" height="1.18" filterUnits="userSpaceOnUse" color-interpolation-filters="sRGB"><feFlood flood-color="#fff" result="bg"/><feBlend in="SourceGraphic" in2="bg"/></filter><mask id="mask-7" x="52.78" y="73.78" width="1.18" height="1.18" maskUnits="userSpaceOnUse"><g class="cls-3"><circle class="cls-4" cx="53.37" cy="74.37" r="0.59"/></g></mask><linearGradient id="linear-gradient-14" x1="54.14" y1="75.1" x2="53.21" y2="74.23" xlink:href="#linear-gradient-13"/><linearGradient id="linear-gradient-15" x1="709.28" y1="117.6" x2="750.27" y2="87.8" gradientTransform="translate(-656.45)" xlink:href="#linear-gradient-9"/><linearGradient id="linear-gradient-16" x1="732.41" y1="46.48" x2="715.62" y2="88.95" gradientTransform="translate(-656.45)" xlink:href="#linear-gradient-9"/><linearGradient id="linear-gradient-17" x1="749.14" y1="-8.76" x2="725.43" y2="27.02" gradientTransform="translate(-656.45)" xlink:href="#linear-gradient-9"/><linearGradient id="linear-gradient-18" x1="760.35" y1="8.6" x2="774.22" y2="8.6" gradientTransform="translate(-656.45)" xlink:href="#linear-gradient-9"/><linearGradient id="linear-gradient-19" x1="757.6" y1="111.42" x2="773.07" y2="79.81" gradientTransform="translate(-656.45)" xlink:href="#linear-gradient-9"/><linearGradient id="linear-gradient-20" x1="789.35" y1="-0.82" x2="756.75" y2="80.84" gradientTransform="translate(-656.45)" xlink:href="#linear-gradient-9"/><linearGradient id="linear-gradient-21" x1="777.4" y1="39.59" x2="699.04" y2="327.03" gradientTransform="translate(-656.45)" gradientUnits="userSpaceOnUse"><stop offset="0.01" stop-color="#c1f7ff"/><stop offset="1" stop-color="#da53eb"/></linearGradient><linearGradient id="linear-gradient-22" x1="796.65" y1="-26.99" x2="699.35" y2="182.42" xlink:href="#linear-gradient-21"/><linearGradient id="linear-gradient-23" x1="746.87" y1="34.6" x2="700.44" y2="129.75" xlink:href="#linear-gradient-21"/><linearGradient id="linear-gradient-24" x1="759.64" y1="-56.2" x2="721.78" y2="79.12" xlink:href="#linear-gradient-21"/><linearGradient id="linear-gradient-25" x1="2200.84" y1="1203.95" x2="2206.77" y2="1203.95" gradientTransform="translate(-1420.17 -1916.55) rotate(24.77)" gradientUnits="userSpaceOnUse"><stop offset="0" stop-color="#ff339d"/><stop offset="0.96" stop-color="#ffd661"/></linearGradient><linearGradient id="linear-gradient-26" x1="2216.69" y1="1206.86" x2="2249.69" y2="1232.61" xlink:href="#linear-gradient-25"/><linearGradient id="linear-gradient-27" x1="2236.16" y1="1184.82" x2="2202.31" y2="1201.34" gradientTransform="translate(-1420.17 -1916.55) rotate(24.77)" gradientUnits="userSpaceOnUse"><stop offset="0.08" stop-color="#ff339d"/><stop offset="0.96" stop-color="#ffd661"/></linearGradient><linearGradient id="linear-gradient-28" x1="2247.4" y1="1195.1" x2="2222.18" y2="1218.62" xlink:href="#linear-gradient-27"/><linearGradient id="linear-gradient-29" x1="82.39" y1="35.14" x2="96.76" y2="22.77" gradientUnits="userSpaceOnUse"><stop offset="0.01" stop-color="#c1f7ff"/><stop offset="0.07" stop-color="#a9ebfe"/><stop offset="0.15" stop-color="#92e1fc"/><stop offset="0.22" stop-color="#85dafb"/><stop offset="0.28" stop-color="#80d8fb"/><stop offset="0.84" stop-color="#da53eb"/></linearGradient><linearGradient id="linear-gradient-30" x1="7211.01" y1="43.09" x2="7186.56" y2="20.17" gradientTransform="matrix(-1, 0, 0, 1, 7334.71, 0)" xlink:href="#linear-gradient-11"/><linearGradient id="linear-gradient-31" x1="7215.97" y1="47.25" x2="7191.5" y2="24.32" gradientTransform="matrix(-1, 0, 0, 1, 7334.71, 0)" gradientUnits="userSpaceOnUse"><stop offset="0" stop-color="#80d8fb"/><stop offset="0.86" stop-color="#da53eb"/></linearGradient><linearGradient id="linear-gradient-32" x1="84.34" y1="22.56" x2="2.75" y2="56.82" xlink:href="#linear-gradient-29"/><linearGradient id="linear-gradient-33" x1="37.53" y1="0.15" x2="-3.74" y2="64.85" xlink:href="#linear-gradient-29"/><linearGradient id="linear-gradient-34" x1="161.72" y1="38.06" x2="131.44" y2="71.58" xlink:href="#linear-gradient-11"/><linearGradient id="linear-gradient-35" x1="123.83" y1="60.45" x2="157.45" y2="72.44" gradientUnits="userSpaceOnUse"><stop offset="0.04" stop-color="#ffb67a"/><stop offset="0.34" stop-color="#ffa884"/><stop offset="0.92" stop-color="#ff38d1"/></linearGradient><filter id="luminosity-noclip-8" x="136.29" y="62.77" width="11.5" height="1.57" filterUnits="userSpaceOnUse" color-interpolation-filters="sRGB"><feFlood flood-color="#fff" result="bg"/><feBlend in="SourceGraphic" in2="bg"/></filter><mask id="mask-8" x="136.29" y="62.77" width="11.5" height="1.57" maskUnits="userSpaceOnUse"><g class="cls-5"><polygon class="cls-6" points="136.75 64.34 147.32 64.34 147.78 62.77 136.29 62.77 136.75 64.34"/></g></mask><linearGradient id="linear-gradient-36" x1="127.04" y1="63.58" x2="153.62" y2="63.54" gradientUnits="userSpaceOnUse"><stop offset="0.05" stop-color="#fff"/><stop offset="0.71" stop-color="#fff"/></linearGradient><filter id="luminosity-noclip-9" x="39.04" y="104.63" width="15.19" height="15.1" filterUnits="userSpaceOnUse" color-interpolation-filters="sRGB"><feFlood flood-color="#fff" result="bg"/><feBlend in="SourceGraphic" in2="bg"/></filter><mask id="mask-9" x="39.04" y="104.63" width="15.19" height="15.1" maskUnits="userSpaceOnUse"><g class="cls-7"><path class="cls-8" d="M47.13,105l1,2.48a5.73,5.73,0,0,0,3,3.07l2.7,1.17a.54.54,0,0,1,0,1l-2.7,1.16a5.79,5.79,0,0,0-3,3.07l-1,2.48a.54.54,0,0,1-1,0l-1-2.48a5.83,5.83,0,0,0-3-3.07l-2.7-1.16a.54.54,0,0,1,0-1l2.7-1.17a5.76,5.76,0,0,0,3-3.07l1-2.48A.54.54,0,0,1,47.13,105Z"/></g></mask><linearGradient id="linear-gradient-37" x1="54.07" y1="119.15" x2="45.11" y2="110.75" xlink:href="#linear-gradient-13"/><filter id="luminosity-noclip-10" x="157.02" y="53.08" width="9.09" height="9.04" filterUnits="userSpaceOnUse" color-interpolation-filters="sRGB"><feFlood flood-color="#fff" result="bg"/><feBlend in="SourceGraphic" in2="bg"/></filter><mask id="mask-10" x="157.02" y="53.08" width="9.09" height="9.04" maskUnits="userSpaceOnUse"><g class="cls-9"><path class="cls-10" d="M161.87,53.28l.62,1.49a3.41,3.41,0,0,0,1.81,1.83l1.62.7a.33.33,0,0,1,0,.6l-1.62.7a3.41,3.41,0,0,0-1.81,1.83l-.62,1.49a.33.33,0,0,1-.6,0l-.62-1.49a3.41,3.41,0,0,0-1.81-1.83l-1.62-.7a.33.33,0,0,1,0-.6l1.62-.7a3.41,3.41,0,0,0,1.81-1.83l.62-1.49A.32.32,0,0,1,161.87,53.28Z"/></g></mask><linearGradient id="linear-gradient-38" x1="166.01" y1="61.77" x2="160.66" y2="56.75" xlink:href="#linear-gradient-13"/></defs><g class="cls-11"><g id="Capa_2" data-name="Capa 2"><g id="Layer_1" data-name="Layer 1"><path class="cls-12" d="M151.79,22.17C186.34,34.79,179,126.3,108,139.65,30.84,154.15,3.59,98.46,15.46,69,29.87,33.11,68,46.6,92.71,44.17,115.47,41.93,122.82,11.58,151.79,22.17Zm-66.17-4.7C77.91,19,72.47,24.3,73.46,29.33s8,7.88,15.75,6.36,13.15-6.82,12.16-11.86S93.32,16,85.62,17.47Z"/><path class="cls-13" d="M45.37,111c-4.36-18.23-.24-21-4.89-36.67-4.11-13.84-18.38-16.92-19.88-15A39.91,39.91,0,0,0,15.46,69c-9.53,23.7,6.18,64.28,52.7,71.83C60.32,128.5,49.43,128,45.37,111Z"/><path class="cls-14" d="M79.18,136c-17.88-16.18-28.12-5.2-42.69-19.85C23.88,103.51,32.75,94,21.16,83.51A17.62,17.62,0,0,0,13,79.12C10.31,105.86,32.53,142.46,84.93,142A56.22,56.22,0,0,0,79.18,136Z"/><path class="cls-15" d="M146.15,77.15c-30.92,11.85-22.48,35-35.05,48.3-11.25,11.88-22.45,2-32,13.19A17,17,0,0,0,77,141.77,123.5,123.5,0,0,0,108,139.65c44.37-8.35,63.87-47.25,63.81-78.33C166.44,75,155.71,73.48,146.15,77.15Z"/><path class="cls-16" d="M137,119.13c-13.18,7.27-20.24-4.51-31.74,2.62-8.85,5.49-5.55,14-10.37,19.74q6.31-.57,13.15-1.84c33.91-6.38,53.29-30.61,60.52-55.54a29.8,29.8,0,0,0-8.62,3.74C143.82,97.83,151.72,111,137,119.13Z"/><circle class="cls-17" cx="51.59" cy="124.82" r="1.62"/><path class="cls-18" d="M54.23,122.72a.6.6,0,0,1-.6.6.6.6,0,0,1,0-1.19A.6.6,0,0,1,54.23,122.72Z"/><g class="cls-19"><path class="cls-20" d="M51.88,70.58a1.4,1.4,0,1,1-1.4-1.4A1.4,1.4,0,0,1,51.88,70.58Z"/></g><g class="cls-21"><circle class="cls-22" cx="53.37" cy="74.37" r="0.59"/></g><path class="cls-23" d="M72.31,96.9a5.24,5.24,0,0,1-5.24-5.24V89a28.68,28.68,0,0,0-1.63,7.11,7.9,7.9,0,0,0,6.73,3.77h30.28a26.54,26.54,0,0,0-.4-2.93Z"/><path class="cls-24" d="M67.07,50.92a20.93,20.93,0,0,1-2.8,2.16V91.92a7.89,7.89,0,0,0,1.17,4.14A28.68,28.68,0,0,1,67.07,89Z"/><path class="cls-25" d="M67.07,8.17a5.24,5.24,0,0,1,5.24-5.24h8.51A2.15,2.15,0,0,1,83,4.79a2.16,2.16,0,0,0,2.14,1.85H97a2.15,2.15,0,0,0,2.13-1.85,2.15,2.15,0,0,1,2.13-1.86h2.69A12.13,12.13,0,0,1,104.72,0H72.17a7.9,7.9,0,0,0-7.9,7.9V53.08a20.93,20.93,0,0,0,2.8-2.16Z"/><path class="cls-26" d="M109.87,0h-5.15a12.13,12.13,0,0,0-.81,2.93h5.82A5.24,5.24,0,0,1,115,8.17v9a13.62,13.62,0,0,0,2.8-2.86V7.9A7.9,7.9,0,0,0,109.87,0Z"/><path class="cls-27" d="M115,66.9V91.66a5.24,5.24,0,0,1-5.24,5.24h-7.68a26.54,26.54,0,0,1,.4,2.93h7.42a7.91,7.91,0,0,0,7.9-7.91V64A14,14,0,0,1,115,66.9Z"/><path class="cls-28" d="M115,17.2V66.9a14,14,0,0,0,2.8-2.93V14.34A13.62,13.62,0,0,1,115,17.2Z"/><path class="cls-29" d="M102,79.14c-3.19,7.71-1,12.26.09,17.76h7.68A5.24,5.24,0,0,0,115,91.66V66.9C110.66,70.29,105.36,70.92,102,79.14Z"/><path class="cls-30" d="M99.56,28.76C93,40.83,101.9,46,95.11,59.25,87.72,73.72,78,68.16,69.47,83.7A37.56,37.56,0,0,0,67.07,89v2.71a5.24,5.24,0,0,0,5.24,5.24h29.74C101,91.4,98.77,86.85,102,79.14c3.4-8.22,8.7-8.85,13-12.24V17.2C110.06,21,104.19,20.3,99.56,28.76Z"/><path class="cls-31" d="M79.53,24.86c-8.29,8.52-2,14.85-10.75,24.35q-.87.95-1.71,1.71V89a37.56,37.56,0,0,1,2.4-5.25c8.51-15.54,18.25-10,25.64-24.45C101.9,46,93,40.83,99.56,28.76,104.19,20.3,110.06,21,115,17.2v-9a5.24,5.24,0,0,0-5.24-5.24h-5.82c-.61,3.91.2,7.81-4,12.36C93,22.82,87.21,17,79.53,24.86Z"/><path class="cls-32" d="M76.89,67.36A1.51,1.51,0,0,0,75.62,69V77.9a1.51,1.51,0,0,0,1.27,1.67H87.74l8.07-12.21Z"/><path class="cls-33" d="M106.93,67.36H95.81L87.74,79.57h19.19a1.51,1.51,0,0,0,1.27-1.67V69A1.51,1.51,0,0,0,106.93,67.36Z"/><path class="cls-34" d="M99.09,4.79A2.15,2.15,0,0,1,97,6.64H85.09A2.16,2.16,0,0,1,83,4.79a2.15,2.15,0,0,0-2.13-1.86H72.31a5.24,5.24,0,0,0-5.24,5.24V50.92q.84-.77,1.71-1.71c8.73-9.5,2.46-15.83,10.75-24.35,7.68-7.89,13.48-2,20.4-9.57,4.18-4.55,3.37-8.45,4-12.36h-2.69A2.15,2.15,0,0,0,99.09,4.79Z"/><rect class="cls-32" x="74.81" y="44.38" width="31.21" height="2.89" rx="1.34"/><path class="cls-32" d="M99.92,52.58h-19a1.44,1.44,0,0,1-1.44-1.45h0a1.44,1.44,0,0,1,1.44-1.44h19a1.44,1.44,0,0,1,1.44,1.44h0A1.44,1.44,0,0,1,99.92,52.58Z"/><path class="cls-35" d="M75.11,97.83a7.46,7.46,0,0,0-.79.66l-.8.77a31.93,31.93,0,0,1,4,3l2-1.88A8.91,8.91,0,0,0,75.11,97.83Z"/><path class="cls-36" d="M82.09,110.72c1.85,4.22,4,8.89,6.77,11.54a59.35,59.35,0,0,1,7.58,8.47l5.19,10,7.85-1.36c-2.68-3.87-9.22-13.41-10.77-14.83C95.05,121.18,89.79,121,82.09,110.72Z"/><path class="cls-37" d="M96,90.43c-1.3-.06-2.49,1.17-3.13,3L87,72.63a2.48,2.48,0,0,0-4.83,1.1l4.8,31.91c-1.72-3.23-6.75-11.42-11.81-7.81a8.91,8.91,0,0,1,4.42,2.57l-2,1.88.39.41c1.38,1.52,2.71,4.63,4.2,8,6,8,10.48,9.88,13.9,11.88-1.65-9.28.59-25.37,1.55-31.38A2.34,2.34,0,0,0,96,90.43Z"/><path class="cls-38" d="M109.48,139.34l11.32-3.1-9-16.75a114,114,0,0,0,0-11.75c-.42-7.15-2.27-15-4.71-15-1.09,0-1.75,1-2.15,2.25-.43-2-1.5-3.35-2.82-3.42S99.58,92.83,99,94.77a6.28,6.28,0,0,0-1.41-3.55c-1,6-3.2,22.1-1.55,31.38a15.75,15.75,0,0,1,2.72,1.91C100.26,125.93,106.8,135.47,109.48,139.34Z"/><path class="cls-32" d="M90.24,16.5A24.51,24.51,0,0,1,78,19.78h0V23.3A21,21,0,0,0,90.24,42.43,21,21,0,0,0,102.52,23.3V19.78h0A24.52,24.52,0,0,1,90.24,16.5Z"/><path class="cls-39" d="M89.67,34.27a1.57,1.57,0,0,1-1.15-.49l-4-4.19a1.59,1.59,0,0,1,2.29-2.2l2.82,3,6.4-6.93a1.59,1.59,0,1,1,2.33,2.16l-7.54,8.17a1.55,1.55,0,0,1-1.15.51Z"/><path class="cls-40" d="M134.6,15.45a12.87,12.87,0,1,1,12.74,22.37C136.94,32.61,136.32,22.89,134.6,15.45Z"/><path class="cls-41" d="M134.6,15.45c1.72,7.44,2.34,17.16,12.74,22.37a12.78,12.78,0,0,1-6.21,1.6H128.25l3.5-4.05a12.87,12.87,0,0,1,2.85-19.92Z"/><path class="cls-32" d="M136.37,28.15l4.37,4.38,5.19-5.19a3.1,3.1,0,0,0,0-4.38h0a3.1,3.1,0,0,0-4.37,0Z"/><path class="cls-32" d="M140.74,32.53l4.38-4.38L139.92,23a3.1,3.1,0,0,0-4.37,0h0a3.1,3.1,0,0,0,0,4.38Z"/><path class="cls-42" d="M28.88,37.27c-2.42,7.3-6.08,12.42-10.33,16H54a1.69,1.69,0,0,0,1.68-1.68V20.16A1.68,1.68,0,0,0,54,18.48H50.92C43.17,21.72,32.82,25.42,28.88,37.27Z"/><path class="cls-43" d="M0,20.16V51.61a1.68,1.68,0,0,0,1.68,1.68H18.55c4.25-3.6,7.91-8.72,10.33-16,3.94-11.85,14.29-15.55,22-18.79H1.68A1.68,1.68,0,0,0,0,20.16Z"/><rect class="cls-32" x="3.71" y="42.77" width="46.83" height="7.3" rx="1.37"/><rect class="cls-32" x="26.24" y="24.95" width="24.3" height="4.9" rx="1.26"/><path class="cls-32" d="M39,35.33H27.48a1.23,1.23,0,0,1-1.24-1.24h0a1.24,1.24,0,0,1,1.24-1.24H39a1.25,1.25,0,0,1,1.24,1.24h0A1.24,1.24,0,0,1,39,35.33Z"/><path class="cls-44" d="M142,61.56a26.52,26.52,0,0,1,12.35,1.58l.65.25c.05-.36.1-.71.13-1.08a13,13,0,0,0-26-2.52A26.52,26.52,0,0,0,142,61.56Z"/><path class="cls-45" d="M154.35,63.14A26.52,26.52,0,0,0,142,61.56a26.52,26.52,0,0,1-12.83-1.77c0,.18,0,.36,0,.55a13,13,0,0,0,25.88,3Z"/><path class="cls-46" d="M141.42,55.31a1.57,1.57,0,0,0-1.57,1.57v1.44H143V56.88A1.57,1.57,0,0,0,141.42,55.31Z"/><path class="cls-32" d="M137.25,66a2.29,2.29,0,0,0,2.19,1.64h5.19a2.3,2.3,0,0,0,2.2-1.64l.49-1.67H136.75Z"/><path class="cls-32" d="M146.08,58.17h-1.25V56.7a2.79,2.79,0,0,0-5.58,0v1.47H138a2.29,2.29,0,0,0-2.19,2.94l.49,1.66h11.5l.49-1.66A2.29,2.29,0,0,0,146.08,58.17Zm-2.39,0h-3.3V56.66a1.65,1.65,0,0,1,3.3,0Z"/><g class="cls-47"><polygon class="cls-48" points="136.75 64.34 147.32 64.34 147.78 62.77 136.29 62.77 136.75 64.34"/></g><path class="cls-32" d="M13.86,25.23a7.21,7.21,0,1,0,0,14.42,7.21,7.21,0,1,0,0-14.42Zm3.56,6a6.12,6.12,0,0,1-3.56,5.55,6.11,6.11,0,0,1-3.57-5.55v-1a7.08,7.08,0,0,0,3.57-.95,7,7,0,0,0,3.56.95Z"/><g class="cls-49"><path class="cls-50" d="M47.13,105l1,2.48a5.73,5.73,0,0,0,3,3.07l2.7,1.17a.54.54,0,0,1,0,1l-2.7,1.16a5.79,5.79,0,0,0-3,3.07l-1,2.48a.54.54,0,0,1-1,0l-1-2.48a5.83,5.83,0,0,0-3-3.07l-2.7-1.16a.54.54,0,0,1,0-1l2.7-1.17a5.76,5.76,0,0,0,3-3.07l1-2.48A.54.54,0,0,1,47.13,105Z"/></g><g class="cls-51"><path class="cls-52" d="M161.87,53.28l.62,1.49a3.41,3.41,0,0,0,1.81,1.83l1.62.7a.33.33,0,0,1,0,.6l-1.62.7a3.41,3.41,0,0,0-1.81,1.83l-.62,1.49a.33.33,0,0,1-.6,0l-.62-1.49a3.41,3.41,0,0,0-1.81-1.83l-1.62-.7a.33.33,0,0,1,0-.6l1.62-.7a3.41,3.41,0,0,0,1.81-1.83l.62-1.49A.32.32,0,0,1,161.87,53.28Z"/></g></g></g></g></svg>