<svg xmlns="http://www.w3.org/2000/svg" xmlns:xlink="http://www.w3.org/1999/xlink" viewBox="0 0 161.03 148.68"><defs><style>.cls-1{mask:url(#mask);filter:url(#luminosity-noclip-4);}.cls-2,.cls-4,.cls-6{mix-blend-mode:multiply;}.cls-2{fill:url(#linear-gradient);}.cls-3{mask:url(#mask-2);filter:url(#luminosity-noclip-5);}.cls-4{fill:url(#linear-gradient-2);}.cls-5{mask:url(#mask-3);filter:url(#luminosity-noclip-6);}.cls-6{fill:url(#radial-gradient);}.cls-7{isolation:isolate;}.cls-8{fill:url(#linear-gradient-3);}.cls-12,.cls-16,.cls-18,.cls-26,.cls-9{mix-blend-mode:hard-light;}.cls-9{fill:url(#linear-gradient-4);}.cls-10{opacity:0.7;fill:url(#linear-gradient-5);}.cls-11{fill:url(#linear-gradient-6);}.cls-12{fill:url(#linear-gradient-7);}.cls-13{fill:url(#linear-gradient-8);}.cls-14{fill:url(#linear-gradient-9);}.cls-15{mask:url(#mask-4);}.cls-16{fill:url(#linear-gradient-10);}.cls-17{mask:url(#mask-5);}.cls-18{fill:url(#linear-gradient-11);}.cls-19{fill:url(#linear-gradient-12);}.cls-20{fill:url(#linear-gradient-13);}.cls-21{fill:url(#linear-gradient-14);}.cls-22,.cls-56{mix-blend-mode:overlay;}.cls-23{fill:url(#linear-gradient-15);}.cls-24{fill:url(#linear-gradient-16);}.cls-25{fill:url(#linear-gradient-17);}.cls-26{fill:url(#linear-gradient-18);}.cls-27{fill:url(#linear-gradient-19);}.cls-28{fill:#fff;}.cls-29{fill:url(#linear-gradient-20);}.cls-30{fill:url(#linear-gradient-21);}.cls-31{fill:url(#linear-gradient-22);}.cls-32{fill:url(#linear-gradient-23);}.cls-33{fill:url(#linear-gradient-24);}.cls-34{fill:url(#linear-gradient-25);}.cls-35{fill:url(#linear-gradient-26);}.cls-36{fill:url(#linear-gradient-27);}.cls-37{fill:url(#linear-gradient-28);}.cls-38{fill:url(#linear-gradient-29);}.cls-39{fill:url(#linear-gradient-30);}.cls-40{fill:url(#linear-gradient-31);}.cls-41{fill:url(#linear-gradient-32);}.cls-42{fill:url(#linear-gradient-33);}.cls-43{fill:url(#linear-gradient-34);}.cls-44{fill:url(#linear-gradient-35);}.cls-45{fill:url(#linear-gradient-36);}.cls-46{fill:url(#linear-gradient-37);}.cls-47{fill:url(#linear-gradient-38);}.cls-48{fill:url(#linear-gradient-39);}.cls-49{fill:url(#linear-gradient-40);}.cls-50{fill:url(#linear-gradient-41);}.cls-51{fill:url(#linear-gradient-42);}.cls-52{fill:url(#linear-gradient-43);}.cls-53{fill:url(#linear-gradient-44);}.cls-54{fill:url(#linear-gradient-45);}.cls-55{mask:url(#mask-6);}.cls-56{fill:url(#radial-gradient-2);}.cls-57{filter:url(#luminosity-noclip-3);}.cls-58{filter:url(#luminosity-noclip-2);}.cls-59{filter:url(#luminosity-noclip);}</style><filter id="luminosity-noclip" x="35.8" y="-8415.92" width="4.6" height="32766" filterUnits="userSpaceOnUse" color-interpolation-filters="sRGB"><feFlood flood-color="#fff" result="bg"/><feBlend in="SourceGraphic" in2="bg"/></filter><mask id="mask" x="35.8" y="-8415.92" width="4.6" height="32766" maskUnits="userSpaceOnUse"><g class="cls-59"/></mask><linearGradient id="linear-gradient" x1="41.11" y1="87.68" x2="37.49" y2="84.28" gradientUnits="userSpaceOnUse"><stop offset="0.03"/><stop offset="0.06" stop-color="#0b0b0b"/><stop offset="0.21" stop-color="#4b4b4b"/><stop offset="0.36" stop-color="#828282"/><stop offset="0.51" stop-color="#afafaf"/><stop offset="0.65" stop-color="#d2d2d2"/><stop offset="0.78" stop-color="#ebebeb"/><stop offset="0.9" stop-color="#fafafa"/><stop offset="1" stop-color="#fff"/></linearGradient><filter id="luminosity-noclip-2" x="41.89" y="-8415.92" width="1.94" height="32766" filterUnits="userSpaceOnUse" color-interpolation-filters="sRGB"><feFlood flood-color="#fff" result="bg"/><feBlend in="SourceGraphic" in2="bg"/></filter><mask id="mask-2" x="41.89" y="-8415.92" width="1.94" height="32766" maskUnits="userSpaceOnUse"><g class="cls-58"/></mask><linearGradient id="linear-gradient-2" x1="44.12" y1="92.28" x2="42.6" y2="90.85" xlink:href="#linear-gradient"/><filter id="luminosity-noclip-3" x="51.93" y="-8415.92" width="50.42" height="32766" filterUnits="userSpaceOnUse" color-interpolation-filters="sRGB"><feFlood flood-color="#fff" result="bg"/><feBlend in="SourceGraphic" in2="bg"/></filter><mask id="mask-3" x="51.93" y="-8415.92" width="50.42" height="32766" maskUnits="userSpaceOnUse"><g class="cls-57"/></mask><radialGradient id="radial-gradient" cx="77.14" cy="55.38" r="25.21" gradientTransform="translate(119.46 -29.64) rotate(80.78)" gradientUnits="userSpaceOnUse"><stop offset="0.25" stop-color="#fff"/><stop offset="0.35" stop-color="#fcfcfc"/><stop offset="0.45" stop-color="#f1f1f1"/><stop offset="0.53" stop-color="#dfdfdf"/><stop offset="0.62" stop-color="#c6c6c6"/><stop offset="0.7" stop-color="#a5a5a5"/><stop offset="0.78" stop-color="#7d7d7d"/><stop offset="0.86" stop-color="#4e4e4e"/><stop offset="0.94" stop-color="#181818"/><stop offset="0.97"/></radialGradient><linearGradient id="linear-gradient-3" x1="153.97" y1="18.25" x2="4.75" y2="161.5" gradientUnits="userSpaceOnUse"><stop offset="0.34" stop-color="#ae3b95"/><stop offset="1" stop-color="#7a14aa"/></linearGradient><linearGradient id="linear-gradient-4" x1="55.98" y1="82.88" x2="-7.04" y2="150.03" gradientUnits="userSpaceOnUse"><stop offset="0.12" stop-color="#ffb67a"/><stop offset="0.26" stop-color="#ffb17d"/><stop offset="0.42" stop-color="#ffa487"/><stop offset="0.59" stop-color="#ff8d96"/><stop offset="0.77" stop-color="#ff6dac"/><stop offset="0.95" stop-color="#ff45c8"/><stop offset="1" stop-color="#ff38d1"/></linearGradient><linearGradient id="linear-gradient-5" x1="57.8" y1="133.59" x2="2.54" y2="104.19" gradientUnits="userSpaceOnUse"><stop offset="0" stop-color="#ff38d1"/><stop offset="1" stop-color="#ffb67a"/></linearGradient><linearGradient id="linear-gradient-6" x1="72.07" y1="175.41" x2="137.5" y2="91.44" gradientUnits="userSpaceOnUse"><stop offset="0.23" stop-color="#ff38d1"/><stop offset="1" stop-color="#ffb67a"/></linearGradient><linearGradient id="linear-gradient-7" x1="95.73" y1="131.51" x2="170.89" y2="102.33" gradientUnits="userSpaceOnUse"><stop offset="0" stop-color="#ffb67a"/><stop offset="1" stop-color="#ff38d1"/></linearGradient><linearGradient id="linear-gradient-8" x1="39.16" y1="131.49" x2="42.41" y2="131.49" gradientUnits="userSpaceOnUse"><stop offset="0.18" stop-color="#ffb67a"/><stop offset="0.37" stop-color="#ffa884"/><stop offset="0.92" stop-color="#ff38d1"/></linearGradient><linearGradient id="linear-gradient-9" x1="42.23" y1="129.39" x2="43.42" y2="129.39" xlink:href="#linear-gradient-8"/><filter id="luminosity-noclip-4" x="35.8" y="82.56" width="4.6" height="4.6" filterUnits="userSpaceOnUse" color-interpolation-filters="sRGB"><feFlood flood-color="#fff" result="bg"/><feBlend in="SourceGraphic" in2="bg"/></filter><mask id="mask-4" x="35.8" y="82.56" width="4.6" height="4.6" maskUnits="userSpaceOnUse"><g class="cls-1"><path class="cls-2" d="M40.4,84.86a2.3,2.3,0,1,1-2.3-2.3A2.3,2.3,0,0,1,40.4,84.86Z"/></g></mask><linearGradient id="linear-gradient-10" x1="41.11" y1="87.68" x2="37.49" y2="84.28" gradientUnits="userSpaceOnUse"><stop offset="0.03" stop-color="#fff2fd"/><stop offset="0.16" stop-color="#ffeaf1"/><stop offset="0.47" stop-color="#ffdad8"/><stop offset="0.76" stop-color="#ffd0c9"/><stop offset="1" stop-color="#ffcdc4"/></linearGradient><filter id="luminosity-noclip-5" x="41.89" y="90.12" width="1.94" height="1.94" filterUnits="userSpaceOnUse" color-interpolation-filters="sRGB"><feFlood flood-color="#fff" result="bg"/><feBlend in="SourceGraphic" in2="bg"/></filter><mask id="mask-5" x="41.89" y="90.12" width="1.94" height="1.94" maskUnits="userSpaceOnUse"><g class="cls-3"><circle class="cls-4" cx="42.86" cy="91.09" r="0.97"/></g></mask><linearGradient id="linear-gradient-11" x1="44.12" y1="92.28" x2="42.6" y2="90.85" xlink:href="#linear-gradient-10"/><linearGradient id="linear-gradient-12" x1="-11402.86" y1="-3519.4" x2="-11411.81" y2="-3527.8" gradientTransform="translate(11480.82 3653.38)" xlink:href="#linear-gradient-8"/><linearGradient id="linear-gradient-13" x1="79.55" y1="104.58" x2="74.68" y2="75.99" gradientUnits="userSpaceOnUse"><stop offset="0" stop-color="#80d8fb"/><stop offset="0.86" stop-color="#da53eb"/></linearGradient><linearGradient id="linear-gradient-14" x1="83.24" y1="116.66" x2="87.07" y2="76.28" gradientUnits="userSpaceOnUse"><stop offset="0" stop-color="#80d8fb"/><stop offset="0.17" stop-color="#99b3f7"/><stop offset="0.38" stop-color="#b58af2"/><stop offset="0.57" stop-color="#c96cee"/><stop offset="0.74" stop-color="#d659ec"/><stop offset="0.86" stop-color="#da53eb"/></linearGradient><linearGradient id="linear-gradient-15" x1="66.27" y1="93.28" x2="87.83" y2="93.98" xlink:href="#linear-gradient-13"/><linearGradient id="linear-gradient-16" x1="86.03" y1="103" x2="74.53" y2="71.39" xlink:href="#linear-gradient-14"/><linearGradient id="linear-gradient-17" x1="86.53" y1="-40.54" x2="34.65" y2="125.69" gradientUnits="userSpaceOnUse"><stop offset="0.39" stop-color="#fff"/><stop offset="0.95" stop-color="#ffd661"/></linearGradient><linearGradient id="linear-gradient-18" x1="50.11" y1="73.4" x2="139.12" y2="13.28" gradientUnits="userSpaceOnUse"><stop offset="0.4" stop-color="#fff"/><stop offset="1" stop-color="#c1f7ff"/></linearGradient><linearGradient id="linear-gradient-19" x1="119.65" y1="54.18" x2="48.03" y2="110.33" gradientUnits="userSpaceOnUse"><stop offset="0.5" stop-color="#fff"/><stop offset="1" stop-color="#ffd661"/></linearGradient><linearGradient id="linear-gradient-20" x1="7.43" y1="62.53" x2="196.65" y2="78.16" gradientUnits="userSpaceOnUse"><stop offset="0.32" stop-color="#ff339d"/><stop offset="0.82" stop-color="#ffd661"/></linearGradient><linearGradient id="linear-gradient-21" x1="87.84" y1="60.66" x2="36.7" y2="77.9" xlink:href="#linear-gradient-20"/><linearGradient id="linear-gradient-22" x1="22.06" y1="-40.69" x2="137.23" y2="64.97" xlink:href="#linear-gradient-20"/><linearGradient id="linear-gradient-23" x1="99.39" y1="18.6" x2="25.11" y2="47.19" gradientUnits="userSpaceOnUse"><stop offset="0.32" stop-color="#ff339d"/><stop offset="0.98" stop-color="#ffd661"/></linearGradient><linearGradient id="linear-gradient-24" x1="98.66" y1="48.03" x2="58.54" y2="59.74" gradientUnits="userSpaceOnUse"><stop offset="0" stop-color="#ff339d"/><stop offset="0.96" stop-color="#ffd661"/></linearGradient><linearGradient id="linear-gradient-25" x1="59.72" y1="54.06" x2="75.14" y2="63.18" xlink:href="#linear-gradient-24"/><linearGradient id="linear-gradient-26" x1="93.17" y1="76.09" x2="70.55" y2="47.79" xlink:href="#linear-gradient-24"/><linearGradient id="linear-gradient-27" x1="90.47" y1="55.39" x2="104.18" y2="66.08" xlink:href="#linear-gradient-24"/><linearGradient id="linear-gradient-28" x1="133.01" y1="19.96" x2="126.16" y2="29.47" xlink:href="#linear-gradient-8"/><linearGradient id="linear-gradient-29" x1="38.54" y1="9.46" x2="31.83" y2="18.76" gradientUnits="userSpaceOnUse"><stop offset="0.41" stop-color="#80d8fb"/><stop offset="1" stop-color="#da53eb"/></linearGradient><linearGradient id="linear-gradient-30" x1="4522.34" y1="987.17" x2="4535.26" y2="979.33" gradientTransform="matrix(-0.91, -0.41, -0.41, 0.91, 4586.51, 997.72)" gradientUnits="userSpaceOnUse"><stop offset="0.01" stop-color="#c1f7ff"/><stop offset="0.07" stop-color="#a9ebfe"/><stop offset="0.15" stop-color="#92e1fc"/><stop offset="0.22" stop-color="#85dafb"/><stop offset="0.28" stop-color="#80d8fb"/><stop offset="0.84" stop-color="#da53eb"/></linearGradient><linearGradient id="linear-gradient-31" x1="4523.72" y1="1033.09" x2="4536.63" y2="1025.25" gradientTransform="matrix(-0.91, -0.41, -0.41, 0.91, 4586.51, 997.72)" xlink:href="#linear-gradient-23"/><linearGradient id="linear-gradient-32" x1="4507.18" y1="960.06" x2="4520.1" y2="952.23" gradientTransform="matrix(-0.91, -0.41, -0.41, 0.91, 4586.51, 997.72)" xlink:href="#linear-gradient-23"/><linearGradient id="linear-gradient-33" x1="106.56" y1="23.59" x2="114.81" y2="23.59" gradientTransform="matrix(1, 0, 0, 1, 0, 0)" xlink:href="#linear-gradient-30"/><linearGradient id="linear-gradient-34" x1="110.68" y1="85.78" x2="118.93" y2="85.78" xlink:href="#linear-gradient-23"/><linearGradient id="linear-gradient-35" x1="43.69" y1="96.66" x2="51.65" y2="96.66" gradientTransform="matrix(1, 0, 0, 1, 0, 0)" xlink:href="#linear-gradient-30"/><linearGradient id="linear-gradient-36" x1="524.75" y1="51.36" x2="500.28" y2="28.42" gradientTransform="translate(-494.44)" xlink:href="#linear-gradient-8"/><linearGradient id="linear-gradient-37" x1="529.69" y1="55.51" x2="505.23" y2="32.58" gradientTransform="translate(-494.44)" xlink:href="#linear-gradient-13"/><linearGradient id="linear-gradient-38" x1="156.7" y1="61.61" x2="133.1" y2="39.6" gradientTransform="matrix(1, 0, 0, 1, 0, 0)" xlink:href="#linear-gradient-30"/><linearGradient id="linear-gradient-39" x1="120.67" y1="37.51" x2="172.58" y2="79.4" gradientUnits="userSpaceOnUse"><stop offset="0.19" stop-color="#c1f7ff"/><stop offset="0.23" stop-color="#a9ebfe"/><stop offset="0.27" stop-color="#92e1fc"/><stop offset="0.32" stop-color="#85dafb"/><stop offset="0.36" stop-color="#80d8fb"/><stop offset="0.84" stop-color="#da53eb"/></linearGradient><linearGradient id="linear-gradient-40" x1="131.57" y1="52.62" x2="158.72" y2="52.62" gradientTransform="matrix(1, 0, 0, 1, 0, 0)" xlink:href="#linear-gradient-30"/><linearGradient id="linear-gradient-41" x1="141.36" y1="98.88" x2="128.44" y2="86.76" xlink:href="#linear-gradient-24"/><linearGradient id="linear-gradient-42" x1="146.17" y1="78.84" x2="128.67" y2="90.31" xlink:href="#linear-gradient-24"/><linearGradient id="linear-gradient-43" x1="141.15" y1="99.11" x2="128.22" y2="86.99" xlink:href="#linear-gradient-24"/><linearGradient id="linear-gradient-44" x1="143.06" y1="97.07" x2="130.13" y2="84.95" xlink:href="#linear-gradient-24"/><linearGradient id="linear-gradient-45" x1="122.59" y1="82.41" x2="138.83" y2="92.2" xlink:href="#linear-gradient-24"/><filter id="luminosity-noclip-6" x="51.93" y="30.17" width="50.42" height="50.42" filterUnits="userSpaceOnUse" color-interpolation-filters="sRGB"><feFlood flood-color="#fff" result="bg"/><feBlend in="SourceGraphic" in2="bg"/></filter><mask id="mask-6" x="51.93" y="30.17" width="50.42" height="50.42" maskUnits="userSpaceOnUse"><g class="cls-5"><circle class="cls-6" cx="77.14" cy="55.38" r="25.21" transform="matrix(0.16, -0.99, 0.99, 0.16, 10.12, 122.66)"/></g></mask><radialGradient id="radial-gradient-2" cx="77.14" cy="55.38" r="25.21" gradientTransform="translate(119.46 -29.64) rotate(80.78)" gradientUnits="userSpaceOnUse"><stop offset="0.25" stop-color="#ffaa70"/><stop offset="0.39" stop-color="#ffac73"/><stop offset="0.51" stop-color="#ffb17e"/><stop offset="0.62" stop-color="#ffba90"/><stop offset="0.73" stop-color="#ffc7a9"/><stop offset="0.84" stop-color="#ffd8ca"/><stop offset="0.94" stop-color="#ffecf1"/><stop offset="0.97" stop-color="#fff2fd"/></radialGradient></defs><g class="cls-7"><g id="Capa_2" data-name="Capa 2"><g id="Layer_1" data-name="Layer 1"><path class="cls-8" d="M141,28.83C175.53,41.46,168.18,133,97.21,146.31,20,160.82-7.21,105.13,4.65,75.61,19.06,39.77,57.19,53.27,81.91,50.83,104.67,48.6,112,18.24,141,28.83ZM74.81,24.14C67.11,25.66,61.67,31,62.66,36s8,7.88,15.74,6.36S91.55,35.53,90.56,30.5,82.52,22.62,74.81,24.14Z"/><path class="cls-9" d="M34.57,117.71c-4.37-18.24-.24-21-4.9-36.67-4.1-13.85-18.38-16.92-19.88-15a40.63,40.63,0,0,0-5.14,9.53c-9.53,23.71,6.18,64.28,52.7,71.83C49.52,135.16,38.63,134.7,34.57,117.71Z"/><path class="cls-10" d="M68.38,142.69c-17.88-16.18-28.13-5.2-42.69-19.84-12.62-12.68-3.75-22.19-15.33-32.67a17.63,17.63,0,0,0-8.15-4.4c-2.7,26.74,19.52,63.34,71.92,62.89A56.3,56.3,0,0,0,68.38,142.69Z"/><path class="cls-11" d="M135.35,83.81c-30.92,11.86-22.48,35-35.06,48.31-11.24,11.87-22.44,2-32,13.18a16.29,16.29,0,0,0-2.13,3.14,123.43,123.43,0,0,0,31-2.13C141.59,138,161.09,99.06,161,68,155.64,81.63,144.9,80.14,135.35,83.81Z"/><path class="cls-12" d="M126.18,125.79c-13.18,7.27-20.24-4.51-31.74,2.62-8.85,5.49-5.55,14-10.37,19.75,4.21-.39,8.59-1,13.14-1.85,33.92-6.38,53.29-30.6,60.52-55.54a30.09,30.09,0,0,0-8.62,3.75C133,104.49,140.92,117.67,126.18,125.79Z"/><circle class="cls-13" cx="40.78" cy="131.49" r="1.62"/><circle class="cls-14" cx="42.83" cy="129.39" r="0.6"/><g class="cls-15"><path class="cls-16" d="M40.4,84.86a2.3,2.3,0,1,1-2.3-2.3A2.3,2.3,0,0,1,40.4,84.86Z"/></g><g class="cls-17"><circle class="cls-18" cx="42.86" cy="91.09" r="0.97"/></g><path class="cls-19" d="M71,119.8l1,2.48a5.79,5.79,0,0,0,3,3.07l2.7,1.16a.54.54,0,0,1,0,1l-2.7,1.17a5.73,5.73,0,0,0-3,3.07l-1,2.48a.54.54,0,0,1-1,0l-1-2.48a5.76,5.76,0,0,0-3-3.07l-2.7-1.17a.54.54,0,0,1,0-1l2.7-1.16a5.83,5.83,0,0,0,3-3.07l1-2.48A.54.54,0,0,1,71,119.8Z"/><path class="cls-20" d="M81.48,87.92c4-3.12,9.19-9.65,13.87-16.08H59.89v42.75a.91.91,0,0,0,1.31.82l8.22-4C71.6,104,71.09,96.08,81.48,87.92Z"/><path class="cls-21" d="M81.48,87.92C71.09,96.08,71.6,104,69.42,111.38l6.25-3.07a7.18,7.18,0,0,1,6.3,0l14.48,7.1a.91.91,0,0,0,1.31-.82V71.84H95.35C90.67,78.27,85.44,84.8,81.48,87.92Z"/><g class="cls-22"><path class="cls-23" d="M80.66,89.7C83.39,87.55,87,83,90.24,78.59H65.75v29.53a.62.62,0,0,0,.9.56l5.68-2.78C73.84,100.79,73.48,95.34,80.66,89.7Z"/><path class="cls-24" d="M80.66,89.7c-7.18,5.64-6.82,11.09-8.33,16.2l4.32-2.12a4.94,4.94,0,0,1,4.34,0l10,4.9a.62.62,0,0,0,.9-.56V78.59H90.24C87,83,83.39,87.55,80.66,89.7Z"/></g><path class="cls-25" d="M82.07,21.65l-2.28-2.3a2.38,2.38,0,0,0-3.32,0L72.85,23a6.33,6.33,0,0,1-6.16,1.65l-4.95-1.36a2.34,2.34,0,0,0-1.79.23A2.36,2.36,0,0,0,58.86,25l-1.3,5a6.28,6.28,0,0,1-4.51,4.51l-5,1.3a2.37,2.37,0,0,0-1.43,1.09,2.34,2.34,0,0,0-.23,1.79l1.36,5a6.33,6.33,0,0,1-1.65,6.16l-3.65,3.62a2.26,2.26,0,0,0-.65,1.2c10.81-5.12,19.3.83,30.09-8.53C81.7,37.51,77.53,29.53,82.07,21.65Z"/><path class="cls-26" d="M72.92,76.82c11-9.08,19.26.1,29.41-8.71,7.39-6.41,4.55-13.07,7-19.33a6.33,6.33,0,0,1-.89-5.22l1.36-5a2.29,2.29,0,0,0-.23-1.79,2.32,2.32,0,0,0-1.43-1.09l-5-1.3a6.28,6.28,0,0,1-4.51-4.51l-1.3-5a2.33,2.33,0,0,0-2.88-1.67l-5,1.36A6.33,6.33,0,0,1,83.4,23l-1.33-1.35C77.53,29.53,81.7,37.51,71.92,46c-10.79,9.36-19.28,3.41-30.09,8.53a2.28,2.28,0,0,0,.65,2.12l3.65,3.61a6.33,6.33,0,0,1,1.65,6.16l-1.36,4.95a2.34,2.34,0,0,0,.23,1.79,2.37,2.37,0,0,0,1.43,1.09l5,1.3a6.28,6.28,0,0,1,4.51,4.51l1.3,5A2.32,2.32,0,0,0,60,86.47a2.29,2.29,0,0,0,1.79.23l4.95-1.36.27,0A17.67,17.67,0,0,1,72.92,76.82Z"/><path class="cls-27" d="M72.85,87l3.61,3.66a2.41,2.41,0,0,0,3.33,0L83.4,87a6.3,6.3,0,0,1,6.16-1.64l5,1.35a2.29,2.29,0,0,0,1.79-.23A2.32,2.32,0,0,0,97.39,85l1.3-5a6.28,6.28,0,0,1,4.51-4.51l5-1.3a2.32,2.32,0,0,0,1.43-1.09,2.29,2.29,0,0,0,.23-1.79l-1.36-4.95a6.31,6.31,0,0,1,1.65-6.15l3.66-3.62a2.34,2.34,0,0,0,0-3.32l-3.66-3.62a6.8,6.8,0,0,1-.76-.94c-2.48,6.26.36,12.92-7,19.33-10.15,8.81-18.44-.37-29.41,8.71a17.67,17.67,0,0,0-6,8.47,6.62,6.62,0,0,1,1.4-.17A6.34,6.34,0,0,1,72.85,87Z"/><path class="cls-28" d="M110.12,49.72l3.66,3.62a2.34,2.34,0,0,1,0,3.32l-3.66,3.62a6.31,6.31,0,0,0-1.65,6.15l1.36,4.95a2.29,2.29,0,0,1-.23,1.79,2.32,2.32,0,0,1-1.43,1.09l-5,1.3a6.28,6.28,0,0,0-4.51,4.51l-1.3,5a2.32,2.32,0,0,1-1.09,1.43,2.29,2.29,0,0,1-1.79.23l-5-1.35A6.3,6.3,0,0,0,83.4,87l-3.61,3.66a2.41,2.41,0,0,1-3.33,0L72.85,87a6.34,6.34,0,0,0-4.49-1.87,6.62,6.62,0,0,0-1.4.17,22.39,22.39,0,0,0-.59,2.2l.85-.23a4.32,4.32,0,0,1,4.21,1.13l3.62,3.66a4.33,4.33,0,0,0,6.15,0l3.62-3.66A4.32,4.32,0,0,1,89,87.26l5,1.36a4.31,4.31,0,0,0,5.32-3.08l1.3-5a4.35,4.35,0,0,1,3.09-3.09l5-1.29a4.34,4.34,0,0,0,3.08-5.33l-1.36-5a4.32,4.32,0,0,1,1.13-4.21l3.66-3.62a4.35,4.35,0,0,0,0-6.15l-3.66-3.61a4.44,4.44,0,0,1-1-1.7,12.73,12.73,0,0,0-1.11,2.17A6.8,6.8,0,0,0,110.12,49.72Z"/><path class="cls-29" d="M116.57,59.48a6.29,6.29,0,0,0,0-9l-3.65-3.62a2.34,2.34,0,0,1-.61-2.28l.1-.38a14.59,14.59,0,0,0-1.94,2.38,12.73,12.73,0,0,0-1.11,2.17,6.8,6.8,0,0,0,.76.94l3.66,3.62a2.34,2.34,0,0,1,0,3.32l-3.66,3.62a6.31,6.31,0,0,0-1.65,6.15l1.36,4.95a2.29,2.29,0,0,1-.23,1.79,2.32,2.32,0,0,1-1.43,1.09l-5,1.3a6.28,6.28,0,0,0-4.51,4.51l-1.3,5a2.32,2.32,0,0,1-1.09,1.43,2.29,2.29,0,0,1-1.79.23l-5-1.35A6.3,6.3,0,0,0,83.4,87l-3.61,3.66a2.41,2.41,0,0,1-3.33,0L72.85,87a6.34,6.34,0,0,0-4.49-1.87,6.62,6.62,0,0,0-1.4.17,22.39,22.39,0,0,0-.59,2.2c-.16.73-.29,1.45-.4,2.18l1.77-.49a2.34,2.34,0,0,1,2.28.61l3.62,3.65a6.29,6.29,0,0,0,9,0l3.62-3.65a2.34,2.34,0,0,1,2.28-.61l4.95,1.36a6.33,6.33,0,0,0,7.78-4.5l1.29-5a2.35,2.35,0,0,1,1.68-1.67l5-1.3a6.33,6.33,0,0,0,4.5-7.78l-1.36-5a2.35,2.35,0,0,1,.61-2.28Z"/><path class="cls-28" d="M44.73,61.69a4.32,4.32,0,0,1,1.13,4.21l-1.36,5a4.32,4.32,0,0,0,3.08,5.32l5,1.3a4.35,4.35,0,0,1,3.09,3.09l1.3,5a4.32,4.32,0,0,0,5.32,3.08l4.11-1.13a22.39,22.39,0,0,1,.59-2.2l-.27,0L61.74,86.7A2.29,2.29,0,0,1,60,86.47,2.32,2.32,0,0,1,58.86,85l-1.3-5a6.28,6.28,0,0,0-4.51-4.51l-5-1.3a2.37,2.37,0,0,1-1.43-1.09,2.34,2.34,0,0,1-.23-1.79l1.36-4.95a6.33,6.33,0,0,0-1.65-6.16l-3.65-3.61a2.28,2.28,0,0,1-.65-2.12c-.65.3-1.31.65-2,1a4.25,4.25,0,0,0,1.23,2.49Z"/><path class="cls-30" d="M66.69,85.34,61.74,86.7A2.29,2.29,0,0,1,60,86.47,2.32,2.32,0,0,1,58.86,85l-1.3-5a6.28,6.28,0,0,0-4.51-4.51l-5-1.3a2.37,2.37,0,0,1-1.43-1.09,2.34,2.34,0,0,1-.23-1.79l1.36-4.95a6.33,6.33,0,0,0-1.65-6.16l-3.65-3.61a2.28,2.28,0,0,1-.65-2.12c-.65.3-1.31.65-2,1s-1.19.74-1.79,1.17a6.22,6.22,0,0,0,1.62,2.73l3.65,3.62a2.35,2.35,0,0,1,.61,2.28l-1.35,5a6.31,6.31,0,0,0,4.49,7.78l5,1.3a2.35,2.35,0,0,1,1.67,1.67L55,86a6.33,6.33,0,0,0,7.78,4.5L66,89.67c.11-.73.24-1.45.4-2.18a22.39,22.39,0,0,1,.59-2.2Z"/><path class="cls-28" d="M83.4,23a6.33,6.33,0,0,0,6.16,1.65l5-1.36A2.33,2.33,0,0,1,97.39,25l1.3,5a6.28,6.28,0,0,0,4.51,4.51l5,1.3a2.32,2.32,0,0,1,1.43,1.09,2.29,2.29,0,0,1,.23,1.79l-1.36,5a6.33,6.33,0,0,0,.89,5.22,12.73,12.73,0,0,1,1.11-2.17,4.32,4.32,0,0,1-.08-2.52l1.36-5a4.33,4.33,0,0,0-3.08-5.33l-5-1.3a4.33,4.33,0,0,1-3.09-3.09l-1.3-5A4.32,4.32,0,0,0,94,21.37l-5,1.36a4.32,4.32,0,0,1-4.21-1.13L83.19,20a15,15,0,0,0-1.12,1.7Z"/><path class="cls-31" d="M113,34.83a6.26,6.26,0,0,0-3.87-2.95l-5-1.29a2.38,2.38,0,0,1-1.68-1.67l-1.29-5a6.31,6.31,0,0,0-7.78-4.49l-4.95,1.35a2.32,2.32,0,0,1-2.28-.61l-1.76-1.77A19.12,19.12,0,0,0,83.19,20a15,15,0,0,0-1.12,1.7L83.4,23a6.33,6.33,0,0,0,6.16,1.65l5-1.36A2.33,2.33,0,0,1,97.39,25l1.3,5a6.28,6.28,0,0,0,4.51,4.51l5,1.3a2.32,2.32,0,0,1,1.43,1.09,2.29,2.29,0,0,1,.23,1.79l-1.36,5a6.33,6.33,0,0,0,.89,5.22,12.73,12.73,0,0,1,1.11-2.17,14.59,14.59,0,0,1,1.94-2.38l1.26-4.57A6.28,6.28,0,0,0,113,34.83Z"/><path class="cls-28" d="M42.48,53.34l3.65-3.62a6.33,6.33,0,0,0,1.65-6.16l-1.36-5a2.34,2.34,0,0,1,.23-1.79,2.37,2.37,0,0,1,1.43-1.09l5-1.3a6.28,6.28,0,0,0,4.51-4.51l1.3-5A2.36,2.36,0,0,1,60,23.52a2.34,2.34,0,0,1,1.79-.23l4.95,1.36A6.33,6.33,0,0,0,72.85,23l3.62-3.65a2.38,2.38,0,0,1,3.32,0l2.28,2.3A15,15,0,0,1,83.19,20l-2-2a4.33,4.33,0,0,0-6.15,0L71.43,21.6a4.32,4.32,0,0,1-4.21,1.13l-5-1.36a4.33,4.33,0,0,0-5.32,3.08l-1.3,5a4.32,4.32,0,0,1-3.09,3.09l-5,1.3a4.33,4.33,0,0,0-3.08,5.33l1.36,5a4.34,4.34,0,0,1-1.13,4.22l-3.65,3.61a4.29,4.29,0,0,0-1.23,3.66c.67-.39,1.33-.74,2-1A2.26,2.26,0,0,1,42.48,53.34Z"/><path class="cls-32" d="M82.61,16.55a6.31,6.31,0,0,0-9,0L70,20.2a2.32,2.32,0,0,1-2.28.61l-4.95-1.35A6.31,6.31,0,0,0,55,24l-1.29,5a2.38,2.38,0,0,1-1.67,1.67l-5,1.29a6.31,6.31,0,0,0-4.49,7.78l1.35,5a2.32,2.32,0,0,1-.61,2.28l-3.65,3.62A6.25,6.25,0,0,0,37.81,55a6.07,6.07,0,0,0,.25,1.75c.6-.43,1.2-.82,1.79-1.17s1.33-.74,2-1a2.26,2.26,0,0,1,.65-1.2l3.65-3.62a6.33,6.33,0,0,0,1.65-6.16l-1.36-5a2.34,2.34,0,0,1,.23-1.79,2.37,2.37,0,0,1,1.43-1.09l5-1.3a6.28,6.28,0,0,0,4.51-4.51l1.3-5A2.36,2.36,0,0,1,60,23.52a2.34,2.34,0,0,1,1.79-.23l4.95,1.36A6.33,6.33,0,0,0,72.85,23l3.62-3.65a2.38,2.38,0,0,1,3.32,0l2.28,2.3A15,15,0,0,1,83.19,20a19.12,19.12,0,0,1,1.28-1.52Z"/><path class="cls-33" d="M90.48,54c-2.13-.32-7.83-4-8.94-7.61s-1.62-5.9-2-6.41,0-5.07,0-5.07-5.07-.66-3.74,7.86c0,0,.92,7.14-2.16,7.36-3.64.26-7.52.77-9.34,1a2.24,2.24,0,0,0-1.88,1.65,1.84,1.84,0,0,0,1,2.07c-.52.5-1.79,1.8-1.72,2.74a2.6,2.6,0,0,0,2.26,2.36,3.39,3.39,0,0,0-1.46,3c.09,1.23,1.46,1.43,2.55,1.41a2.64,2.64,0,0,0-.58,2.14c.28,3.52,13.91,3.49,15.79,3.42s6.65-2,8.11-2.53,7.67.44,7.67.44V53.58A20.64,20.64,0,0,1,90.48,54Z"/><path class="cls-34" d="M69.37,64.93c1.07-3.49-.48-7.72.5-10.46.32-.9.78-2.69,1.13-4.16-2.76.27-5.34.61-6.73.8a2.24,2.24,0,0,0-1.88,1.65,1.84,1.84,0,0,0,1,2.07c-.52.5-1.79,1.8-1.72,2.74a2.6,2.6,0,0,0,2.26,2.36,3.39,3.39,0,0,0-1.46,3c.09,1.23,1.46,1.43,2.55,1.41a2.64,2.64,0,0,0-.58,2.14c.13,1.67,3.27,2.54,6.74,3C69.69,68.11,69.06,65.94,69.37,64.93Z"/><path class="cls-35" d="M90.48,54a9,9,0,0,1-2.68-1.11c1.5,4.86,2.14,10.21-1.61,11.55C81,66.25,72,68.66,66,68.18c3.72,1.77,12.68,1.74,14.18,1.69,1.87-.06,6.65-2,8.11-2.53s7.67.44,7.67.44V53.58A20.64,20.64,0,0,1,90.48,54Z"/><rect class="cls-36" x="92.24" y="52.37" width="9.01" height="15.81" rx="1.3"/><circle class="cls-28" cx="99.4" cy="54.51" r="1.05"/><path class="cls-37" d="M129,19l1,2.48a5.73,5.73,0,0,0,3,3.07l2.7,1.17a.54.54,0,0,1,0,1l-2.7,1.16A5.76,5.76,0,0,0,130,31l-1,2.48a.55.55,0,0,1-1,0L127,31a5.76,5.76,0,0,0-3-3.07l-2.7-1.16a.54.54,0,0,1,0-1l2.7-1.17a5.73,5.73,0,0,0,3-3.07L128,19A.55.55,0,0,1,129,19Z"/><path class="cls-38" d="M33.69,9.82l1,2.42a5.69,5.69,0,0,0,3,3l2.7,1.14a.53.53,0,0,1,0,1l-2.7,1.14a5.69,5.69,0,0,0-3,3l-1,2.42a.54.54,0,0,1-1,0l-1-2.42a5.7,5.7,0,0,0-3-3l-2.71-1.14a.53.53,0,0,1,0-1l2.71-1.14a5.7,5.7,0,0,0,3-3l1-2.42A.54.54,0,0,1,33.69,9.82Z"/><path class="cls-39" d="M56.21,29.79l3.41.35.22-2.1a9,9,0,0,0-3.7-8.19l-2-1.42-2,2.79,2,1.42a5.52,5.52,0,0,1,2.28,5Z"/><path class="cls-40" d="M36,71l3.41.36.22-2.1a8.93,8.93,0,0,0-3.71-8.19l-2-1.42-2,2.79,2,1.42a5.52,5.52,0,0,1,2.28,5Z"/><path class="cls-41" d="M81.21,11.36l3.41.35.22-2.1a8.93,8.93,0,0,0-3.71-8.19L79.13,0l-2,2.8,2,1.42a5.47,5.47,0,0,1,2.27,5Z"/><path class="cls-42" d="M110,28.36h-3.48c0-1.87,1.31-3.76,2.69-5.76.88-1.26,2.08-3,2.08-3.77h3.48c0,1.87-1.31,3.76-2.7,5.76C111.24,25.85,110,27.57,110,28.36Z"/><path class="cls-43" d="M114.16,90.55h-3.48c0-1.87,1.31-3.76,2.7-5.76.87-1.26,2.07-3,2.07-3.77h3.48c0,1.87-1.31,3.76-2.69,5.76C115.36,88,114.16,89.77,114.16,90.55Z"/><path class="cls-44" d="M47.05,101.26H43.69c0-1.81,1.26-3.63,2.6-5.56.84-1.21,2-2.88,2-3.64h3.36c0,1.81-1.27,3.63-2.6,5.56C48.2,98.83,47.05,100.5,47.05,101.26Z"/><path class="cls-45" d="M19.4,23.71A12.87,12.87,0,1,0,6.66,46.07C17.07,40.87,17.69,31.14,19.4,23.71Z"/><path class="cls-46" d="M19.4,23.71c-1.71,7.43-2.33,17.16-12.74,22.36a12.79,12.79,0,0,0,6.22,1.61H25.76l-3.51-4A12.85,12.85,0,0,0,19.4,23.71Z"/><path class="cls-28" d="M10.21,33a2.44,2.44,0,1,1-2.43-2.43A2.43,2.43,0,0,1,10.21,33Z"/><path class="cls-28" d="M21.22,33a2.44,2.44,0,1,1-2.43-2.43A2.43,2.43,0,0,1,21.22,33Z"/><path class="cls-28" d="M10.91,36a2.51,2.51,0,0,0,2.22,2.72A2.51,2.51,0,0,0,15.34,36Z"/><path class="cls-47" d="M145.14,70.64a1.69,1.69,0,0,1-.73-.16,25.13,25.13,0,0,1-14.6-22.76V43.83a1.76,1.76,0,0,1,1.76-1.76,25.76,25.76,0,0,0,12.69-3.4,1.73,1.73,0,0,1,1.76,0,25.43,25.43,0,0,0,12.7,3.4,1.76,1.76,0,0,1,1.76,1.76v3.89a25.18,25.18,0,0,1-14.6,22.76A1.73,1.73,0,0,1,145.14,70.64ZM133.33,45.53v2.19a21.6,21.6,0,0,0,11.81,19.21A21.68,21.68,0,0,0,157,47.72V45.53a28.9,28.9,0,0,1-11.82-3.33,29.8,29.8,0,0,1-2.85,1.32A28.63,28.63,0,0,1,133.33,45.53Z"/><path class="cls-48" d="M146.3,57h0c-3.92-2.79-5.85-9.13-4.67-15.07a27.1,27.1,0,0,1-10.06,1.94v3.89a23.28,23.28,0,0,0,13.57,21.16A23.29,23.29,0,0,0,151,65,12.89,12.89,0,0,0,146.3,57Z"/><path class="cls-49" d="M145.14,40.19a27.06,27.06,0,0,1-3.51,1.7c-1.18,5.94.75,12.28,4.67,15.07h0A12.89,12.89,0,0,1,151,65a23.21,23.21,0,0,0,7.75-17.32V43.83A27.06,27.06,0,0,1,145.14,40.19Z"/><path class="cls-28" d="M144.27,60.21a1.89,1.89,0,0,1-1.36-.57l-4.7-5a1.88,1.88,0,0,1,2.71-2.6l3.32,3.51,7.56-8.18A1.87,1.87,0,1,1,154.55,50l-8.9,9.65a1.85,1.85,0,0,1-1.36.6Z"/><path class="cls-50" d="M131.57,93.73a5.91,5.91,0,0,1-2.15-11.41l1.44-2.68a8.21,8.21,0,1,0,2.5,16.2l-1-2.17A5.73,5.73,0,0,1,131.57,93.73Z"/><path class="cls-51" d="M139.78,87.82a8.22,8.22,0,0,0-8.21-8.21c-.24,0-.48,0-.71,0l-1.44,2.68a5.91,5.91,0,1,1,3,11.35l1,2.17A8.23,8.23,0,0,0,139.78,87.82Z"/><path class="cls-52" d="M125.66,87.82a5.9,5.9,0,0,0,5.91,5.91,5.73,5.73,0,0,0,.84-.06l-4-9.37,1.06-2A5.91,5.91,0,0,0,125.66,87.82Z"/><path class="cls-53" d="M132.41,93.67a5.91,5.91,0,1,0-3-11.35l-1.06,2Z"/><path class="cls-54" d="M131.57,81.21a6.66,6.66,0,0,0-2.41.46,6.61,6.61,0,0,0,2.41,12.77,6,6,0,0,0,1-.08,6.61,6.61,0,0,0-1-13.15Z"/><path class="cls-28" d="M134.85,89.59c0-1.42-.75-2.22-2.74-2.78-1.42-.4-1.74-.66-1.74-1.24,0-.41.25-.91,1.1-.91a1.15,1.15,0,0,1,1.12.52.89.89,0,0,0,.77.44h0a.88.88,0,0,0,.67-1.47,2.59,2.59,0,0,0-1.39-.77.46.46,0,0,1-.34-.45h0a.47.47,0,0,0-.46-.47h-.65a.47.47,0,0,0-.47.47v0a.47.47,0,0,1-.32.45,2.4,2.4,0,0,0-1.93,2.34c0,1.25.66,2.08,2.91,2.73,1.23.35,1.57.67,1.57,1.32s-.31,1-1.29,1a1.44,1.44,0,0,1-1.32-.69.87.87,0,0,0-.76-.43h0a.89.89,0,0,0-.7,1.43,2.92,2.92,0,0,0,1.61.95.47.47,0,0,1,.37.45v.23a.47.47,0,0,0,.46.47h.66a.47.47,0,0,0,.47-.47v-.2a.47.47,0,0,1,.35-.47A2.44,2.44,0,0,0,134.85,89.59Z"/><g class="cls-55"><circle class="cls-56" cx="77.14" cy="55.38" r="25.21" transform="matrix(0.16, -0.99, 0.99, 0.16, 10.12, 122.66)"/></g></g></g></g></svg>