<svg xmlns="http://www.w3.org/2000/svg" viewBox="0 0 225.65 225.65"><defs><style>.cls-1{fill:#030303;}</style></defs><g id="Capa_2" data-name="Capa 2"><g id="Layer_1" data-name="Layer 1"><path class="cls-1" d="M112.83,117.83a5,5,0,0,1-5-5V50.44a5,5,0,1,1,10,0v62.39A5,5,0,0,1,112.83,117.83Z"/><path class="cls-1" d="M156.94,161.94a5,5,0,0,1-3.53-1.46l-44.12-44.12a5,5,0,0,1,7.07-7.07l44.12,44.12a5,5,0,0,1-3.54,8.53Z"/><path class="cls-1" d="M112.83,225.65A112.83,112.83,0,1,1,225.65,112.83,112.95,112.95,0,0,1,112.83,225.65Zm0-215.65A102.83,102.83,0,1,0,215.65,112.83,102.95,102.95,0,0,0,112.83,10Z"/></g></g></svg>