<svg xmlns="http://www.w3.org/2000/svg" viewBox="0 0 225.57 225.57"><defs><style>.cls-1{fill:#030303;}</style></defs><g id="Capa_2" data-name="Capa 2"><g id="Layer_1" data-name="Layer 1"><path class="cls-1" d="M119.93,225.57H105.64a16.94,16.94,0,0,1-16.89-15.26l-1.92-18.86a82,82,0,0,1-11.32-4.69l-14.69,12a16.92,16.92,0,0,1-22.73-1.15L28,187.48a16.92,16.92,0,0,1-1.15-22.73l12-14.69a81.08,81.08,0,0,1-4.69-11.32l-18.86-1.92A16.94,16.94,0,0,1,0,119.93V105.64A16.93,16.93,0,0,1,15.26,88.75l18.86-1.92a82,82,0,0,1,4.69-11.32l-12-14.69A16.92,16.92,0,0,1,28,38.09L38.09,28a16.92,16.92,0,0,1,22.73-1.15l14.69,12a80.58,80.58,0,0,1,11.32-4.69l1.92-18.86A16.94,16.94,0,0,1,105.64,0h14.29a16.94,16.94,0,0,1,16.89,15.26l1.92,18.86a82.5,82.5,0,0,1,11.32,4.69l14.69-12A16.92,16.92,0,0,1,187.48,28l10.11,10.11a16.92,16.92,0,0,1,1.15,22.73l-12,14.69a83,83,0,0,1,4.69,11.32l18.86,1.92a16.93,16.93,0,0,1,15.26,16.89v14.29a16.94,16.94,0,0,1-15.26,16.89l-18.86,1.92a82.5,82.5,0,0,1-4.69,11.32l12,14.69a16.92,16.92,0,0,1-1.15,22.73l-10.11,10.11a16.92,16.92,0,0,1-22.73,1.15l-14.69-12a83.57,83.57,0,0,1-11.32,4.69l-1.92,18.86A16.94,16.94,0,0,1,119.93,225.57ZM92.62,182.78a4.83,4.83,0,0,1,1.42.58,5,5,0,0,1,2.4,3.77L98.7,209.3a7,7,0,0,0,6.94,6.27h14.29a7,7,0,0,0,6.94-6.27l2.26-22.17a5,5,0,0,1,3.63-4.31A72.34,72.34,0,0,0,148,176.54a5.26,5.26,0,0,1,1.33-.58,5,5,0,0,1,4.46.95L171.07,191a7,7,0,0,0,9.34-.47l10.11-10.11a7,7,0,0,0,.47-9.34L176.91,153.8a5,5,0,0,1-.48-5.62A72.42,72.42,0,0,0,182.78,133a4.89,4.89,0,0,1,.54-1.37,5,5,0,0,1,3.81-2.46l22.17-2.26a7,7,0,0,0,6.27-6.94V105.64a7,7,0,0,0-6.27-6.94l-22.17-2.26a5,5,0,0,1-4.31-3.63,72.34,72.34,0,0,0-6.28-15.25A4.81,4.81,0,0,1,176,76.2a5,5,0,0,1,.95-4.43L191,54.5a7,7,0,0,0-.47-9.34L180.41,35.05a7,7,0,0,0-9.34-.47L153.8,48.66a5,5,0,0,1-5.62.48A71.89,71.89,0,0,0,133,42.79a4.63,4.63,0,0,1-1.37-.55,5,5,0,0,1-2.46-3.8l-2.26-22.17A7,7,0,0,0,119.93,10H105.64a7,7,0,0,0-6.94,6.27L96.44,38.44a5,5,0,0,1-3.63,4.31A72.83,72.83,0,0,0,77.56,49a4.74,4.74,0,0,1-1.32.58,5,5,0,0,1-4.47-.94L54.5,34.58a7,7,0,0,0-9.34.47L35.05,45.16a7,7,0,0,0-.47,9.34L48.66,71.77a5,5,0,0,1,.48,5.62,71.44,71.44,0,0,0-6.31,15.09A5.11,5.11,0,0,1,42.24,94a5,5,0,0,1-3.8,2.43L16.27,98.7A7,7,0,0,0,10,105.64v14.29a7,7,0,0,0,6.27,6.94l22.17,2.26a5,5,0,0,1,4.31,3.63A72.53,72.53,0,0,0,49,148a4.93,4.93,0,0,1,.58,1.33,5,5,0,0,1-.94,4.47L34.58,171.07a7,7,0,0,0,.47,9.34l10.11,10.11a7,7,0,0,0,9.34.47l17.27-14.08a5,5,0,0,1,5.62-.48A72.28,72.28,0,0,0,92.62,182.78Z"/><path class="cls-1" d="M112.78,153.71a40.93,40.93,0,1,1,40.93-40.93A41,41,0,0,1,112.78,153.71Zm0-71.85a30.93,30.93,0,1,0,30.93,30.92A31,31,0,0,0,112.78,81.86Z"/></g></g></svg>