<svg xmlns="http://www.w3.org/2000/svg" xmlns:xlink="http://www.w3.org/1999/xlink" viewBox="0 0 159.04 162.73"><defs><style>.cls-1{mask:url(#mask);filter:url(#luminosity-noclip-5);}.cls-2,.cls-4,.cls-6,.cls-8{mix-blend-mode:multiply;}.cls-2{fill:url(#linear-gradient);}.cls-3{mask:url(#mask-2);filter:url(#luminosity-noclip-6);}.cls-4{fill:url(#linear-gradient-2);}.cls-5{mask:url(#mask-3);filter:url(#luminosity-noclip-7);}.cls-6{fill:url(#linear-gradient-3);}.cls-7{mask:url(#mask-4);filter:url(#luminosity-noclip-8);}.cls-8{fill:url(#linear-gradient-4);}.cls-9{isolation:isolate;}.cls-10{fill:url(#linear-gradient-5);}.cls-11{fill:url(#linear-gradient-6);}.cls-12,.cls-14,.cls-20,.cls-22{mix-blend-mode:hard-light;}.cls-12{fill:url(#linear-gradient-7);}.cls-13{fill:url(#linear-gradient-8);}.cls-14{fill:url(#linear-gradient-9);}.cls-15{mask:url(#mask-5);}.cls-16{fill:url(#linear-gradient-10);}.cls-17{mask:url(#mask-6);}.cls-18{fill:url(#linear-gradient-11);}.cls-19{mask:url(#mask-7);}.cls-20{fill:url(#linear-gradient-12);}.cls-21{mask:url(#mask-8);}.cls-22{fill:url(#linear-gradient-13);}.cls-23{fill:url(#linear-gradient-14);}.cls-24{fill:url(#linear-gradient-15);}.cls-25{fill:url(#linear-gradient-16);}.cls-26{opacity:0.38;fill:url(#linear-gradient-17);}.cls-27{fill:url(#linear-gradient-18);}.cls-28{fill:url(#linear-gradient-19);}.cls-29{fill:url(#linear-gradient-20);}.cls-30{fill:url(#linear-gradient-21);}.cls-31{fill:url(#linear-gradient-22);}.cls-32{fill:url(#linear-gradient-23);}.cls-33{fill:url(#linear-gradient-24);}.cls-34{fill:url(#linear-gradient-25);}.cls-35{fill:url(#linear-gradient-26);}.cls-36{fill:url(#linear-gradient-27);}.cls-37{fill:url(#linear-gradient-28);}.cls-38{fill:url(#linear-gradient-29);}.cls-39{fill:url(#linear-gradient-30);}.cls-40{fill:url(#linear-gradient-31);}.cls-41{fill:url(#linear-gradient-32);}.cls-42{fill:url(#linear-gradient-33);}.cls-43{fill:url(#linear-gradient-34);}.cls-44{fill:url(#linear-gradient-35);}.cls-45{fill:#fff;}.cls-46{fill:url(#linear-gradient-36);}.cls-47{fill:url(#linear-gradient-37);}.cls-48{fill:url(#linear-gradient-38);}.cls-49{fill:url(#linear-gradient-39);}.cls-50{fill:url(#linear-gradient-40);}.cls-51{fill:url(#linear-gradient-41);}.cls-52{fill:url(#linear-gradient-42);}.cls-53{filter:url(#luminosity-noclip-4);}.cls-54{filter:url(#luminosity-noclip-3);}.cls-55{filter:url(#luminosity-noclip-2);}.cls-56{filter:url(#luminosity-noclip);}</style><filter id="luminosity-noclip" x="134.39" y="-8131.25" width="15.19" height="32766" filterUnits="userSpaceOnUse" color-interpolation-filters="sRGB"><feFlood flood-color="#fff" result="bg"/><feBlend in="SourceGraphic" in2="bg"/></filter><mask id="mask" x="134.39" y="-8131.25" width="15.19" height="32766" maskUnits="userSpaceOnUse"><g class="cls-56"/></mask><linearGradient id="linear-gradient" x1="-11331.4" y1="-3560.35" x2="-11340.36" y2="-3568.75" gradientTransform="translate(11480.82 3653.38)" gradientUnits="userSpaceOnUse"><stop offset="0.03"/><stop offset="0.06" stop-color="#0b0b0b"/><stop offset="0.21" stop-color="#4b4b4b"/><stop offset="0.36" stop-color="#828282"/><stop offset="0.51" stop-color="#afafaf"/><stop offset="0.65" stop-color="#d2d2d2"/><stop offset="0.78" stop-color="#ebebeb"/><stop offset="0.9" stop-color="#fafafa"/><stop offset="1" stop-color="#fff"/></linearGradient><filter id="luminosity-noclip-2" x="15" y="-8131.25" width="9.13" height="32766" filterUnits="userSpaceOnUse" color-interpolation-filters="sRGB"><feFlood flood-color="#fff" result="bg"/><feBlend in="SourceGraphic" in2="bg"/></filter><mask id="mask-2" x="15" y="-8131.25" width="9.13" height="32766" maskUnits="userSpaceOnUse"><g class="cls-55"/></mask><linearGradient id="linear-gradient-2" x1="-13593.44" y1="-456.51" x2="-13602.4" y2="-464.91" gradientTransform="translate(8195.05 375.92) scale(0.6)" xlink:href="#linear-gradient"/><filter id="luminosity-noclip-3" x="17.93" y="-8131.25" width="2.8" height="32766" filterUnits="userSpaceOnUse" color-interpolation-filters="sRGB"><feFlood flood-color="#fff" result="bg"/><feBlend in="SourceGraphic" in2="bg"/></filter><mask id="mask-3" x="17.93" y="-8131.25" width="2.8" height="32766" maskUnits="userSpaceOnUse"><g class="cls-54"/></mask><linearGradient id="linear-gradient-3" x1="21.16" y1="86.76" x2="18.96" y2="84.7" gradientTransform="matrix(1, 0, 0, 1, 0, 0)" xlink:href="#linear-gradient"/><filter id="luminosity-noclip-4" x="21.64" y="-8131.25" width="1.18" height="32766" filterUnits="userSpaceOnUse" color-interpolation-filters="sRGB"><feFlood flood-color="#fff" result="bg"/><feBlend in="SourceGraphic" in2="bg"/></filter><mask id="mask-4" x="21.64" y="-8131.25" width="1.18" height="32766" maskUnits="userSpaceOnUse"><g class="cls-53"/></mask><linearGradient id="linear-gradient-4" x1="23" y1="89.56" x2="22.07" y2="88.69" gradientTransform="matrix(1, 0, 0, 1, 0, 0)" xlink:href="#linear-gradient"/><linearGradient id="linear-gradient-5" x1="65.08" y1="45.54" x2="94.08" y2="165.32" gradientUnits="userSpaceOnUse"><stop offset="0" stop-color="#ae3b95"/><stop offset="0.24" stop-color="#a83797"/><stop offset="0.54" stop-color="#982b9e"/><stop offset="0.88" stop-color="#7e17a8"/><stop offset="0.92" stop-color="#7a14aa"/></linearGradient><linearGradient id="linear-gradient-6" x1="98.65" y1="116.85" x2="159.04" y2="116.85" gradientUnits="userSpaceOnUse"><stop offset="0" stop-color="#ffb67a"/><stop offset="0.77" stop-color="#ff38d1"/></linearGradient><linearGradient id="linear-gradient-7" x1="122.97" y1="111.22" x2="167.34" y2="87.43" gradientUnits="userSpaceOnUse"><stop offset="0.12" stop-color="#ffb67a"/><stop offset="0.26" stop-color="#ffb17d"/><stop offset="0.43" stop-color="#ffa487"/><stop offset="0.59" stop-color="#ff8d96"/><stop offset="0.77" stop-color="#ff6dac"/><stop offset="0.95" stop-color="#ff45c8"/><stop offset="1" stop-color="#ff38d1"/></linearGradient><linearGradient id="linear-gradient-8" x1="0.01" y1="130.28" x2="43.27" y2="130.28" xlink:href="#linear-gradient-6"/><linearGradient id="linear-gradient-9" x1="18.21" y1="143.82" x2="5.25" y2="43.9" gradientUnits="userSpaceOnUse"><stop offset="0.41" stop-color="#ffb67a"/><stop offset="0.9" stop-color="#ff38d1"/></linearGradient><filter id="luminosity-noclip-5" x="134.39" y="78.51" width="15.19" height="15.1" filterUnits="userSpaceOnUse" color-interpolation-filters="sRGB"><feFlood flood-color="#fff" result="bg"/><feBlend in="SourceGraphic" in2="bg"/></filter><mask id="mask-5" x="134.39" y="78.51" width="15.19" height="15.1" maskUnits="userSpaceOnUse"><g class="cls-1"><path class="cls-2" d="M142.49,78.85l1,2.48a5.79,5.79,0,0,0,3,3.07l2.7,1.16a.54.54,0,0,1,0,1l-2.7,1.17a5.73,5.73,0,0,0-3,3.07l-1,2.48a.55.55,0,0,1-1,0l-1-2.48a5.73,5.73,0,0,0-3-3.07l-2.7-1.17a.54.54,0,0,1,0-1l2.7-1.16a5.79,5.79,0,0,0,3-3.07l1-2.48A.55.55,0,0,1,142.49,78.85Z"/></g></mask><linearGradient id="linear-gradient-10" x1="-11331.4" y1="-3560.35" x2="-11340.36" y2="-3568.75" gradientTransform="translate(11480.82 3653.38)" gradientUnits="userSpaceOnUse"><stop offset="0.03" stop-color="#fff2fd"/><stop offset="0.16" stop-color="#ffeaf1"/><stop offset="0.47" stop-color="#ffdad8"/><stop offset="0.76" stop-color="#ffd0c9"/><stop offset="1" stop-color="#ffcdc4"/></linearGradient><filter id="luminosity-noclip-6" x="15" y="92.79" width="9.13" height="9.08" filterUnits="userSpaceOnUse" color-interpolation-filters="sRGB"><feFlood flood-color="#fff" result="bg"/><feBlend in="SourceGraphic" in2="bg"/></filter><mask id="mask-6" x="15" y="92.79" width="9.13" height="9.08" maskUnits="userSpaceOnUse"><g class="cls-3"><path class="cls-4" d="M19.86,93l.63,1.49a3.38,3.38,0,0,0,1.82,1.84l1.62.71a.33.33,0,0,1,0,.6l-1.62.7a3.38,3.38,0,0,0-1.82,1.84l-.63,1.49a.32.32,0,0,1-.6,0l-.62-1.49a3.45,3.45,0,0,0-1.82-1.84l-1.63-.7a.33.33,0,0,1,0-.6l1.63-.71a3.45,3.45,0,0,0,1.82-1.84L19.26,93A.32.32,0,0,1,19.86,93Z"/></g></mask><linearGradient id="linear-gradient-11" x1="-13593.44" y1="-456.51" x2="-13602.4" y2="-464.91" gradientTransform="translate(8195.05 375.92) scale(0.6)" xlink:href="#linear-gradient-10"/><filter id="luminosity-noclip-7" x="17.93" y="83.65" width="2.8" height="2.8" filterUnits="userSpaceOnUse" color-interpolation-filters="sRGB"><feFlood flood-color="#fff" result="bg"/><feBlend in="SourceGraphic" in2="bg"/></filter><mask id="mask-7" x="17.93" y="83.65" width="2.8" height="2.8" maskUnits="userSpaceOnUse"><g class="cls-5"><path class="cls-6" d="M20.73,85.05a1.4,1.4,0,1,1-1.4-1.4A1.4,1.4,0,0,1,20.73,85.05Z"/></g></mask><linearGradient id="linear-gradient-12" x1="21.16" y1="86.76" x2="18.96" y2="84.7" gradientTransform="matrix(1, 0, 0, 1, 0, 0)" xlink:href="#linear-gradient-10"/><filter id="luminosity-noclip-8" x="21.64" y="88.25" width="1.18" height="1.18" filterUnits="userSpaceOnUse" color-interpolation-filters="sRGB"><feFlood flood-color="#fff" result="bg"/><feBlend in="SourceGraphic" in2="bg"/></filter><mask id="mask-8" x="21.64" y="88.25" width="1.18" height="1.18" maskUnits="userSpaceOnUse"><g class="cls-7"><circle class="cls-8" cx="22.23" cy="88.84" r="0.59"/></g></mask><linearGradient id="linear-gradient-13" x1="23" y1="89.56" x2="22.07" y2="88.69" gradientTransform="matrix(1, 0, 0, 1, 0, 0)" xlink:href="#linear-gradient-10"/><linearGradient id="linear-gradient-14" x1="56.81" y1="126.05" x2="65.95" y2="154.34" xlink:href="#linear-gradient-5"/><linearGradient id="linear-gradient-15" x1="78.09" y1="51.25" x2="79.42" y2="73.57" gradientUnits="userSpaceOnUse"><stop offset="0.14" stop-color="#ff339d"/><stop offset="0.96" stop-color="#ffd661"/></linearGradient><linearGradient id="linear-gradient-16" x1="31.39" y1="65.27" x2="99.29" y2="118.23" gradientUnits="userSpaceOnUse"><stop offset="0.06" stop-color="#ff339d"/><stop offset="0.96" stop-color="#ffd661"/></linearGradient><linearGradient id="linear-gradient-17" x1="41.43" y1="88.83" x2="200.51" y2="26.2" gradientUnits="userSpaceOnUse"><stop offset="0" stop-color="#ff339d"/><stop offset="0.96" stop-color="#ffd661"/></linearGradient><linearGradient id="linear-gradient-18" x1="-8.5" y1="30.33" x2="80.13" y2="91.56" xlink:href="#linear-gradient-17"/><linearGradient id="linear-gradient-19" x1="97.15" y1="66.96" x2="122.88" y2="129.19" xlink:href="#linear-gradient-17"/><linearGradient id="linear-gradient-20" x1="57.39" y1="20.74" x2="132.32" y2="85.04" xlink:href="#linear-gradient-17"/><linearGradient id="linear-gradient-21" x1="121.57" y1="-1.48" x2="44.85" y2="27.92" gradientUnits="userSpaceOnUse"><stop offset="0.01" stop-color="#c1f7ff"/><stop offset="0.07" stop-color="#a9ebfe"/><stop offset="0.15" stop-color="#92e1fc"/><stop offset="0.22" stop-color="#85dafb"/><stop offset="0.28" stop-color="#80d8fb"/><stop offset="0.84" stop-color="#da53eb"/></linearGradient><linearGradient id="linear-gradient-22" x1="109.37" y1="-22.95" x2="93.74" y2="36.88" xlink:href="#linear-gradient-21"/><linearGradient id="linear-gradient-23" x1="117.16" y1="1.71" x2="84.95" y2="51.02" xlink:href="#linear-gradient-21"/><linearGradient id="linear-gradient-24" x1="4874.97" y1="1085.39" x2="4887.89" y2="1077.55" gradientTransform="matrix(-0.91, -0.41, -0.41, 0.91, 4945.49, 1075.27)" xlink:href="#linear-gradient-21"/><linearGradient id="linear-gradient-25" x1="112.7" y1="45.36" x2="126.75" y2="36.83" xlink:href="#linear-gradient-17"/><linearGradient id="linear-gradient-26" x1="115.78" y1="26.89" x2="124.78" y2="21.42" xlink:href="#linear-gradient-17"/><linearGradient id="linear-gradient-27" x1="62.91" y1="20.74" x2="67.2" y2="25.03" xlink:href="#linear-gradient-17"/><linearGradient id="linear-gradient-28" x1="88.23" y1="50.49" x2="96.48" y2="50.49" xlink:href="#linear-gradient-21"/><linearGradient id="linear-gradient-29" x1="-1069.62" y1="-1144.92" x2="-1062.06" y2="-1144.92" gradientTransform="translate(1387.19 826.29) rotate(-16.82)" xlink:href="#linear-gradient-17"/><linearGradient id="linear-gradient-30" x1="-1041.52" y1="-1118.9" x2="-1036.34" y2="-1118.9" gradientTransform="translate(1387.19 826.29) rotate(-16.82)" xlink:href="#linear-gradient-17"/><linearGradient id="linear-gradient-31" x1="51.58" y1="22.66" x2="46.72" y2="30.32" xlink:href="#linear-gradient-17"/><linearGradient id="linear-gradient-32" x1="30.58" y1="55.36" x2="6.11" y2="32.42" gradientUnits="userSpaceOnUse"><stop offset="0.18" stop-color="#ffb67a"/><stop offset="0.37" stop-color="#ffa884"/><stop offset="0.92" stop-color="#ff38d1"/></linearGradient><linearGradient id="linear-gradient-33" x1="35.53" y1="59.51" x2="11.06" y2="36.57" gradientUnits="userSpaceOnUse"><stop offset="0" stop-color="#80d8fb"/><stop offset="0.86" stop-color="#da53eb"/></linearGradient><linearGradient id="linear-gradient-34" x1="-5957.38" y1="7646.98" x2="-5950.59" y2="7652.27" gradientTransform="translate(-1127.03 -9584.56) rotate(-45)" xlink:href="#linear-gradient-16"/><linearGradient id="linear-gradient-35" x1="4143.27" y1="1106.48" x2="4150.06" y2="1111.77" gradientTransform="translate(-2074.84 -3681.29) rotate(45)" xlink:href="#linear-gradient-16"/><linearGradient id="linear-gradient-36" x1="54.98" y1="149.27" x2="38.74" y2="134.04" xlink:href="#linear-gradient-17"/><linearGradient id="linear-gradient-37" x1="61.02" y1="124.09" x2="39.03" y2="138.51" xlink:href="#linear-gradient-17"/><linearGradient id="linear-gradient-38" x1="54.71" y1="149.57" x2="38.46" y2="134.34" xlink:href="#linear-gradient-17"/><linearGradient id="linear-gradient-39" x1="57.11" y1="147" x2="40.87" y2="131.77" xlink:href="#linear-gradient-17"/><linearGradient id="linear-gradient-40" x1="31.38" y1="128.58" x2="51.79" y2="140.88" xlink:href="#linear-gradient-17"/><linearGradient id="linear-gradient-41" x1="7244.48" y1="-88.51" x2="7249.66" y2="-88.51" gradientTransform="translate(-1092.51 -7014.49) rotate(81.56)" xlink:href="#linear-gradient-17"/><linearGradient id="linear-gradient-42" x1="4832.71" y1="1147.34" x2="4845.62" y2="1139.5" gradientTransform="matrix(-0.91, -0.41, -0.41, 0.91, 4945.49, 1075.27)" xlink:href="#linear-gradient-21"/></defs><g class="cls-9"><g id="Capa_2" data-name="Capa 2"><g id="Layer_1" data-name="Layer 1"><path class="cls-10" d="M70.32,141.46c-9.8,10.65-33.67,27.37-60-.71-21.8-23.29-12.74-81.37,61.58-97.32,83-17.81,101.41,56.73,77.31,87.26C130.57,154.35,86.67,123.68,70.32,141.46Zm12.36,4.12c-6.35,2.26-10.2,7.72-8.6,12.18s8,6.25,14.37,4,10.19-7.72,8.6-12.18S89,143.31,82.68,145.58Z"/><path class="cls-11" d="M127.84,124.3c-11.16,9.86-17.51,5.21-29.19,12.33,18.24,2.66,39.15,8.56,50.6-5.94,7.48-9.48,10.86-23.2,9.49-37.08-4.82,1-9.81,1.93-14.59,5.79C133.69,107.85,139,114.4,127.84,124.3Z"/><path class="cls-12" d="M144,82.47c-4.89,10.2-11.87,6.6-17.2,18-5.94,12.76,1.35,17-4.61,31.43a28.13,28.13,0,0,1-4.46,7.59c12.3,1.4,24,.71,31.51-8.85,13.31-16.86,13.64-47.15-2.71-67.88C144.3,70.45,146,78.37,144,82.47Z"/><path class="cls-13" d="M34.07,147.59c-10.83-13.8-2.84-19-12.73-30.62-7.65-9-14.19-6.89-20.73-12.61-2.18,14.3,1.66,27.75,9.75,36.39,11.81,12.62,23.13,16.19,32.91,15.33A33.08,33.08,0,0,1,34.07,147.59Z"/><path class="cls-14" d="M28.23,111c-3.36-13.11-11.16-9.35-13.74-21.25-1.82-8.42,2.15-12.31,2.71-18.22C-5,95.06-4,125.43,10.36,140.75c6.42,6.86,12.69,11,18.65,13.29A40.43,40.43,0,0,1,27,147.2C23.23,130.06,32,125.81,28.23,111Z"/><g class="cls-15"><path class="cls-16" d="M142.49,78.85l1,2.48a5.79,5.79,0,0,0,3,3.07l2.7,1.16a.54.54,0,0,1,0,1l-2.7,1.17a5.73,5.73,0,0,0-3,3.07l-1,2.48a.55.55,0,0,1-1,0l-1-2.48a5.73,5.73,0,0,0-3-3.07l-2.7-1.17a.54.54,0,0,1,0-1l2.7-1.16a5.79,5.79,0,0,0,3-3.07l1-2.48A.55.55,0,0,1,142.49,78.85Z"/></g><g class="cls-17"><path class="cls-18" d="M19.86,93l.63,1.49a3.38,3.38,0,0,0,1.82,1.84l1.62.71a.33.33,0,0,1,0,.6l-1.62.7a3.38,3.38,0,0,0-1.82,1.84l-.63,1.49a.32.32,0,0,1-.6,0l-.62-1.49a3.45,3.45,0,0,0-1.82-1.84l-1.63-.7a.33.33,0,0,1,0-.6l1.63-.71a3.45,3.45,0,0,0,1.82-1.84L19.26,93A.32.32,0,0,1,19.86,93Z"/></g><g class="cls-19"><path class="cls-20" d="M20.73,85.05a1.4,1.4,0,1,1-1.4-1.4A1.4,1.4,0,0,1,20.73,85.05Z"/></g><g class="cls-21"><circle class="cls-22" cx="22.23" cy="88.84" r="0.59"/></g><path class="cls-23" d="M67.81,157.08a2.55,2.55,0,1,1,.63-3.8A2.72,2.72,0,0,1,67.81,157.08Z"/><polygon class="cls-24" points="88.51 74.17 34.97 61.16 66.42 53.3 121.92 53.3 88.51 74.17"/><path class="cls-25" d="M35,61.16H88.51a0,0,0,0,1,0,0V119.6a0,0,0,0,1,0,0H40.58A5.61,5.61,0,0,1,35,114V61.16A0,0,0,0,1,35,61.16Z"/><polygon class="cls-26" points="88.51 61.16 34.97 61.16 34.97 104.22 79.08 104.22 88.51 61.16"/><polygon class="cls-27" points="74.96 87.19 21.41 87.19 34.97 61.16 88.51 61.16 74.96 87.19"/><path class="cls-28" d="M117.6,112.78,88.51,119.6V61.16l33.41-7.83v54A5.6,5.6,0,0,1,117.6,112.78Z"/><polygon class="cls-29" points="137.63 75.89 104.21 83.75 88.51 61.16 121.92 53.3 137.63 75.89"/><path class="cls-30" d="M73.37,10.53a1.48,1.48,0,0,0-.48,2.69l10,6.59L118.65,0Z"/><path class="cls-31" d="M82.92,19.81V32.14a1.17,1.17,0,0,0,1.87.94l9.53-6.9L118.65,0Z"/><path class="cls-32" d="M93.3,26.63l11.13,7.3a1.49,1.49,0,0,0,2.22-.74L118.65,0,93,23.31A2.11,2.11,0,0,0,93.3,26.63Z"/><path class="cls-33" d="M53.47,51.23l3.41.35.22-2.1a9,9,0,0,0-3.7-8.19l-2-1.42-2,2.79,2,1.42a5.52,5.52,0,0,1,2.28,5Z"/><path class="cls-34" d="M116.61,46.87l-3.54-1.18.73-2.18a9.71,9.71,0,0,1,7.35-6.46l2.62-.51.72,3.66-2.63.51a6,6,0,0,0-4.52,4Z"/><path class="cls-35" d="M118.28,27.85,116,27.09l.46-1.39a6.22,6.22,0,0,1,4.71-4.14l1.68-.33.46,2.35-1.68.33a3.84,3.84,0,0,0-2.9,2.54Z"/><path class="cls-36" d="M64.39,27.84H60.77c0-1.95,1.36-3.91,2.8-6,.91-1.31,2.16-3.1,2.16-3.92h3.61c0,1.95-1.36,3.91-2.8,6C65.63,25.23,64.39,27,64.39,27.84Z"/><path class="cls-37" d="M91.71,55.26H88.23c0-1.88,1.31-3.76,2.69-5.76.88-1.26,2.08-3,2.08-3.78h3.48c0,1.88-1.31,3.77-2.7,5.76C92.91,52.75,91.71,54.47,91.71,55.26Z"/><path class="cls-38" d="M37.51,42.64c-.95-2.14-4.56-3.93-5.88-4.44l1.17-3c.61.24,6,2.41,7.67,6.16Z"/><path class="cls-39" d="M70.23,58.52c-.64-1.46-3.12-2.69-4-3L67,53.4c.42.17,4.12,1.66,5.26,4.23Z"/><path class="cls-40" d="M50,27.16a1.29,1.29,0,1,1-1.29-1.29A1.29,1.29,0,0,1,50,27.16Z"/><path class="cls-41" d="M19.68,27.71A12.87,12.87,0,1,0,6.93,50.07C17.34,44.87,18,35.14,19.68,27.71Z"/><path class="cls-42" d="M19.68,27.71C18,35.14,17.34,44.87,6.93,50.07a12.82,12.82,0,0,0,6.22,1.6H26l-3.51-4.05a12.85,12.85,0,0,0-2.84-19.91Z"/><path class="cls-43" d="M75.62,35.34l-3.4,3.4-4-4a2.4,2.4,0,0,1,0-3.4h0a2.4,2.4,0,0,1,3.4,0Z"/><path class="cls-44" d="M72.22,38.74l-3.4-3.4,4-4a2.4,2.4,0,0,1,3.4,0h0a2.4,2.4,0,0,1,0,3.4Z"/><path class="cls-45" d="M17.91,40.41l-4.37,4.37-5.2-5.19a3.1,3.1,0,0,1,0-4.37h0a3.1,3.1,0,0,1,4.38,0Z"/><path class="cls-45" d="M13.54,44.78,9.16,40.41l5.19-5.19a3.1,3.1,0,0,1,4.38,0h0a3.1,3.1,0,0,1,0,4.37Z"/><path class="cls-46" d="M42.67,142.81A7.42,7.42,0,0,1,40,128.47l1.81-3.36a10.31,10.31,0,0,0,.89,20.59,10.48,10.48,0,0,0,2.25-.24l-1.18-2.73A7.48,7.48,0,0,1,42.67,142.81Z"/><path class="cls-47" d="M53,135.38a10.32,10.32,0,0,0-10.32-10.32,8.85,8.85,0,0,0-.89,0L40,128.47a7.42,7.42,0,1,1,3.77,14.26l1.18,2.73A10.33,10.33,0,0,0,53,135.38Z"/><path class="cls-48" d="M35.24,135.38a7.41,7.41,0,0,0,8.5,7.35L38.64,131,40,128.47A7.44,7.44,0,0,0,35.24,135.38Z"/><path class="cls-49" d="M43.74,142.73A7.42,7.42,0,1,0,40,128.47L38.64,131Z"/><path class="cls-50" d="M42.67,127.07a8.32,8.32,0,0,0,0,16.63,7.74,7.74,0,0,0,1.19-.1,8.31,8.31,0,0,0-1.19-16.53Z"/><path class="cls-45" d="M46.79,137.6c0-1.78-.94-2.79-3.44-3.48-1.78-.51-2.18-.84-2.18-1.57,0-.51.31-1.14,1.38-1.14a1.43,1.43,0,0,1,1.4.65,1.15,1.15,0,0,0,1,.56h0a1.12,1.12,0,0,0,.85-1.86,3.4,3.4,0,0,0-1.74-1,.57.57,0,0,1-.43-.56h0a.59.59,0,0,0-.59-.59H42.2a.58.58,0,0,0-.59.59v0a.57.57,0,0,1-.41.56,3,3,0,0,0-2.42,2.95c0,1.58.83,2.62,3.65,3.43,1.55.44,2,.84,2,1.66,0,.67-.39,1.27-1.63,1.27a1.8,1.8,0,0,1-1.65-.87,1.08,1.08,0,0,0-1-.54h-.06a1.11,1.11,0,0,0-.87,1.8,3.65,3.65,0,0,0,2,1.19.6.6,0,0,1,.47.57v.28a.58.58,0,0,0,.59.59h.82a.58.58,0,0,0,.59-.59v-.25a.59.59,0,0,1,.44-.59A3,3,0,0,0,46.79,137.6Z"/><path class="cls-51" d="M55.36,142.13c1.55-.43,3.13-2.7,3.6-3.54l1.94,1.09c-.22.4-2.24,3.85-4.95,4.59Z"/><path class="cls-52" d="M66.4,125.1l3.41.35.21-2.1a8.9,8.9,0,0,0-3.7-8.19l-2-1.42-2,2.79,2,1.43a5.47,5.47,0,0,1,2.27,5Z"/></g></g></g></svg>